<svg width="24" height="24" viewBox="0 0 24 24" fill="none" xmlns="http://www.w3.org/2000/svg">
<path d="M9.86182 4.00003C8.48727 3.99256 7.14909 5.35279 7.76 7.04188H5.45455C5.06878 7.04188 4.69881 7.19936 4.42603 7.47968C4.15325 7.76001 4 8.14021 4 8.53664V10.0314C4 10.2296 4.07662 10.4197 4.21301 10.5599C4.3494 10.7 4.53439 10.7788 4.72727 10.7788H11.2727V8.53664H12.7273V10.7788H19.2727C19.4656 10.7788 19.6506 10.7 19.787 10.5599C19.9234 10.4197 20 10.2296 20 10.0314V8.53664C20 8.14021 19.8468 7.76001 19.574 7.47968C19.3012 7.19936 18.9312 7.04188 18.5455 7.04188H16.24C17.0909 4.59794 13.8909 2.87148 12.4145 4.9791L12 5.54711L11.5855 4.96415C11.1273 4.29898 10.4945 4.0075 9.86182 4.00003ZM9.81818 5.54711C10.4655 5.54711 10.7927 6.35429 10.3345 6.82514C9.87636 7.29599 9.09091 6.95967 9.09091 6.2945C9.09091 6.09628 9.16753 5.90618 9.30392 5.76602C9.44031 5.62585 9.6253 5.54711 9.81818 5.54711ZM14.1818 5.54711C14.8291 5.54711 15.1564 6.35429 14.6982 6.82514C14.24 7.29599 13.4545 6.95967 13.4545 6.2945C13.4545 6.09628 13.5312 5.90618 13.6676 5.76602C13.8039 5.62585 13.9889 5.54711 14.1818 5.54711ZM4.72727 11.5262V17.5052C4.72727 17.9017 4.88052 18.2819 5.1533 18.5622C5.42608 18.8425 5.79605 19 6.18182 19H17.8182C18.204 19 18.5739 18.8425 18.8467 18.5622C19.1195 18.2819 19.2727 17.9017 19.2727 17.5052V11.5262H12.7273V17.5052H11.2727V11.5262H4.72727Z" fill="#D6D6D6"/>
</svg>
