<svg width="22" height="22" viewBox="0 0 22 22" fill="none" xmlns="http://www.w3.org/2000/svg">
<path d="M4.5833 19.25C4.32357 19.25 4.10602 19.162 3.93063 18.986C3.75524 18.81 3.66724 18.5924 3.66663 18.3333C3.66602 18.0742 3.75402 17.8567 3.93063 17.6807C4.10724 17.5047 4.3248 17.4167 4.5833 17.4167H17.4166C17.6764 17.4167 17.8942 17.5047 18.0702 17.6807C18.2462 17.8567 18.3339 18.0742 18.3333 18.3333C18.3327 18.5924 18.2447 18.8103 18.0693 18.9869C17.8939 19.1635 17.6764 19.2512 17.4166 19.25H4.5833ZM7.3333 15.5833C6.32496 15.5833 5.46177 15.2243 4.74371 14.5062C4.02566 13.7882 3.66663 12.925 3.66663 11.9167V4.58333C3.66663 4.07917 3.8463 3.64772 4.20563 3.289C4.56496 2.93028 4.99641 2.75061 5.49996 2.75H18.3333C18.8375 2.75 19.2692 2.92967 19.6285 3.289C19.9879 3.64833 20.1672 4.07978 20.1666 4.58333V7.33333C20.1666 7.8375 19.9873 8.26925 19.6285 8.62858C19.2698 8.98792 18.8381 9.16728 18.3333 9.16667H16.5V11.9167C16.5 12.925 16.1409 13.7882 15.4229 14.5062C14.7048 15.2243 13.8416 15.5833 12.8333 15.5833H7.3333ZM16.5 7.33333H18.3333V4.58333H16.5V7.33333Z" fill="#FF7A33"/>
</svg>
