<svg width="24" height="24" viewBox="0 0 24 24" fill="none" xmlns="http://www.w3.org/2000/svg">
<path d="M14.464 14.0883L14.0849 14.4658C14.0849 14.4658 13.1824 15.3625 10.7199 12.9142C8.25738 10.4658 9.15988 9.56915 9.15988 9.56915L9.39821 9.33082C9.98738 8.74582 10.0432 7.80582 9.52905 7.11915L8.47905 5.71665C7.84238 4.86665 6.61321 4.75415 5.88405 5.47915L4.57571 6.77915C4.21488 7.13915 3.97321 7.60415 4.00238 8.12082C4.07738 9.44332 4.67571 12.2875 8.01238 15.6058C11.5515 19.1242 14.8724 19.2642 16.2299 19.1375C16.6599 19.0975 17.0332 18.8792 17.334 18.5792L18.5174 17.4025C19.3174 16.6083 19.0924 15.2458 18.069 14.69L16.4774 13.8242C15.8057 13.46 14.989 13.5667 14.464 14.0883Z" fill="#D6D6D6"/>
</svg>
