<svg width="24" height="24" viewBox="0 0 24 24" fill="none" xmlns="http://www.w3.org/2000/svg">
<path fill-rule="evenodd" clip-rule="evenodd" d="M15.5856 12.9873C15.3922 13.1815 15.1438 13.3116 14.8741 13.3602L11.6597 13.9388C11.4486 13.977 11.2314 13.9639 11.0264 13.9007C10.8214 13.8374 10.6346 13.7259 10.4817 13.5754C10.3289 13.4249 10.2143 13.2399 10.1478 13.036C10.0814 12.832 10.0648 12.615 10.0997 12.4034L10.6354 9.14616C10.6809 8.86881 10.8124 8.6128 11.0115 8.41437L15.4463 4H7.67816C7.25191 4 6.84311 4.16933 6.5417 4.47073C6.2403 4.77213 6.07097 5.18092 6.07097 5.60717V15.1634L5.02736 18.2953C4.99711 18.3863 4.99183 18.4837 5.01209 18.5774C5.03234 18.6712 5.07739 18.7577 5.14252 18.8281C5.20765 18.8985 5.29048 18.9501 5.38236 18.9776C5.47425 19.005 5.57181 19.0073 5.66488 18.9842L9.88645 17.9288H18.3928C18.8191 17.9288 19.2279 17.7595 19.5293 17.4581C19.8307 17.1567 20 16.7479 20 16.3217V8.55365L15.5856 12.9873ZM18.1989 4.0825C18.0021 4.00049 17.7854 3.97901 17.5764 4.02081C17.3674 4.06261 17.1757 4.16578 17.0256 4.31715L11.9576 9.36367L11.4219 12.6209L14.6363 12.0423L19.6828 6.97434C19.7833 6.87474 19.863 6.75623 19.9174 6.62567C19.9718 6.4951 19.9998 6.35506 19.9998 6.21361C19.9998 6.07217 19.9718 5.93212 19.9174 5.80156C19.863 5.67099 19.7833 5.55249 19.6828 5.45288L18.5471 4.31715C18.4477 4.21635 18.3294 4.13623 18.1989 4.08143" fill="#FF7A33"/>
</svg>
