<svg width="24" height="24" viewBox="0 0 24 24" fill="none" xmlns="http://www.w3.org/2000/svg">
<path d="M12.3333 3C8.48333 3 5 5.95167 5 10.5167C5 13.4317 7.24583 16.86 11.7283 20.8108C12.0767 21.1133 12.5992 21.1133 12.9475 20.8108C17.4208 16.86 19.6667 13.4317 19.6667 10.5167C19.6667 5.95167 16.1833 3 12.3333 3ZM12.3333 12.1667C11.325 12.1667 10.5 11.3417 10.5 10.3333C10.5 9.325 11.325 8.5 12.3333 8.5C13.3417 8.5 14.1667 9.325 14.1667 10.3333C14.1667 11.3417 13.3417 12.1667 12.3333 12.1667Z" fill="#D6D6D6"/>
</svg>
