<svg width="17" height="16" viewBox="0 0 17 16" fill="none" xmlns="http://www.w3.org/2000/svg">
<path d="M13.3333 0C14.2174 0 15.0652 0.351189 15.6904 0.976311C16.3155 1.60143 16.6667 2.44928 16.6667 3.33333V10C16.6667 10.8841 16.3155 11.7319 15.6904 12.357C15.0652 12.9821 14.2174 13.3333 13.3333 13.3333H9.39667L5.42833 15.7142C5.30882 15.7859 5.17324 15.8265 5.03398 15.8322C4.89472 15.838 4.75624 15.8088 4.63121 15.7472C4.50619 15.6856 4.39861 15.5936 4.31833 15.4796C4.23804 15.3657 4.18762 15.2335 4.17167 15.095L4.16667 15V13.3333H3.33333C2.47813 13.3333 1.65564 13.0046 1.03599 12.4152C0.416337 11.8258 0.0469269 11.0208 0.00416676 10.1667L0 10V3.33333C0 2.44928 0.35119 1.60143 0.976311 0.976311C1.60143 0.351189 2.44928 0 3.33333 0H13.3333ZM8.33333 8.33333C8.11232 8.33333 7.90036 8.42113 7.74408 8.57741C7.5878 8.73369 7.5 8.94565 7.5 9.16667V9.175C7.5 9.39601 7.5878 9.60798 7.74408 9.76426C7.90036 9.92054 8.11232 10.0083 8.33333 10.0083C8.55435 10.0083 8.76631 9.92054 8.92259 9.76426C9.07887 9.60798 9.16667 9.39601 9.16667 9.175V9.16667C9.16667 8.94565 9.07887 8.73369 8.92259 8.57741C8.76631 8.42113 8.55435 8.33333 8.33333 8.33333ZM8.33333 3.33333C8.11232 3.33333 7.90036 3.42113 7.74408 3.57741C7.5878 3.73369 7.5 3.94565 7.5 4.16667V6.66667C7.5 6.88768 7.5878 7.09964 7.74408 7.25592C7.90036 7.4122 8.11232 7.5 8.33333 7.5C8.55435 7.5 8.76631 7.4122 8.92259 7.25592C9.07887 7.09964 9.16667 6.88768 9.16667 6.66667V4.16667C9.16667 3.94565 9.07887 3.73369 8.92259 3.57741C8.76631 3.42113 8.55435 3.33333 8.33333 3.33333Z" fill="#FF7A33"/>
</svg>
