<svg width="28" height="28" viewBox="0 0 28 28" fill="none" xmlns="http://www.w3.org/2000/svg">
<path d="M3.79002 2.62477C2.82702 2.16477 1.76902 3.04477 2.04402 4.07577L4.06002 11.6088C4.11054 11.7981 4.21557 11.9684 4.36207 12.0985C4.50856 12.2287 4.69006 12.3129 4.88402 12.3408L14.768 13.7528C15.054 13.7928 15.054 14.2068 14.768 14.2478L4.88502 15.6588C4.69106 15.6866 4.50956 15.7709 4.36307 15.901C4.21657 16.0311 4.11154 16.2014 4.06102 16.3908L2.04402 23.9278C1.76902 24.9578 2.82702 25.8378 3.79002 25.3788L25.288 15.1298C26.237 14.6778 26.237 13.3258 25.288 12.8728L3.79002 2.62477Z" fill="#F0F0F0"/>
</svg>
