<svg width="99" height="21" viewBox="0 0 99 21" fill="none" xmlns="http://www.w3.org/2000/svg">
<path d="M6.4375 12.1069C6.57303 13.6429 6.66338 14.5464 6.70856 14.8174C6.70856 14.9078 6.79891 14.9755 6.95702 15.0433C7.11513 15.1337 7.25066 15.1563 7.38618 15.1563C8.06381 15.1563 9.03508 15.1563 10.3 15.1111C11.5649 15.0885 12.4458 15.0659 12.9427 15.0659C13.2138 15.0659 13.6204 15.1111 14.1625 15.2014C14.4561 15.2466 14.5691 15.4499 14.5013 15.7887C14.3206 16.6922 14.2302 17.3924 14.1851 17.8442C14.0947 18.7477 13.6655 19.2898 12.8524 19.4931C11.4294 19.8545 9.7353 20.0126 7.74759 19.9674C7.47654 19.9674 5.85023 19.9448 2.86866 19.9222C2.07809 19.9222 1.5134 19.7867 1.19717 19.5157C0.880944 19.2446 0.655068 18.7025 0.54213 17.9119C0.316254 16.376 0.15814 15.0433 0.112965 13.9365C2.62617e-05 12.1295 2.62617e-05 10.7517 0.112965 9.80298C0.225903 8.76395 0.564717 6.6633 1.152 3.5462C1.19717 3.20739 1.37787 2.6427 1.6941 1.85213C1.85221 1.40038 2.12326 1.1745 2.48467 1.15191C2.71054 1.15191 3.1623 1.12933 3.79475 1.06156C4.4272 1.01639 4.90154 0.971213 5.24036 0.971213C6.77632 0.9938 8.2671 0.813099 9.69012 0.406521C9.98376 0.406521 10.1645 0.383934 10.2096 0.383934C10.2548 0.383934 10.4581 0.383934 10.7743 0.42911C11.0906 0.474284 11.2713 0.496872 11.339 0.496872C11.5649 0.542048 11.8359 0.564635 12.107 0.60981C12.3781 0.654986 12.6717 0.677573 13.0105 0.722748C13.3267 0.767924 13.5978 0.813099 13.8011 0.835686C14.1399 0.880862 14.3206 1.10674 14.3206 1.49073C14.298 1.85213 14.298 2.37165 14.298 3.02669V4.56265C14.298 4.92405 14.1625 5.1951 13.9366 5.42098C13.7107 5.64685 13.4171 5.7372 13.0783 5.7372C13.0331 5.7372 12.5362 5.7372 11.5649 5.71462C10.5936 5.69203 10.0967 5.69203 10.0741 5.71462C9.30613 5.78238 8.4478 5.94049 7.52171 6.16637C7.38618 6.21154 7.27325 6.46001 7.16031 6.95694C7.13772 7.00211 7.16031 7.06988 7.25066 7.16023C7.31842 7.25058 7.38618 7.31834 7.45395 7.31834C8.38004 7.52163 9.08026 7.63457 9.53201 7.65715C10.0289 7.70233 10.7066 7.7475 11.6101 7.79268C12.5136 7.83785 13.1234 7.88303 13.4397 7.88303C13.7333 7.90562 13.9366 7.97338 14.0721 8.10891C14.1851 8.24443 14.2302 8.44772 14.2302 8.71877C14.2302 10.0514 14.2077 11.0001 14.1625 11.5422C14.1399 11.6778 14.0947 11.7907 14.0044 11.9262C13.914 12.0617 13.8011 12.1521 13.6881 12.1973C13.2816 12.378 12.875 12.4909 12.4458 12.5361C11.8585 12.5813 11.2713 12.6038 10.684 12.6038C9.57719 12.6038 8.47039 12.5361 7.3636 12.3554C7.34101 12.3554 7.02478 12.265 6.4375 12.1069ZM33.0242 19.719C32.6628 19.719 32.1207 19.719 31.3753 19.6964C30.6299 19.6738 30.0652 19.6512 29.7038 19.6512C28.981 19.6512 28.326 19.6738 27.7161 19.719C27.4902 19.7641 27.3321 19.7415 27.2418 19.6738C27.1288 19.6286 27.0611 19.4931 27.0159 19.2898C26.5641 17.6635 26.3834 16.2856 26.4738 15.2014C26.4738 15.1788 26.4286 14.9304 26.3609 14.456C24.1924 14.3431 22.9501 14.2753 22.6339 14.2302C22.2725 14.2302 21.9111 14.1624 21.5723 14.072C21.2561 14.0043 20.9624 14.0269 20.7365 14.1624C20.5107 14.2979 20.3525 14.5238 20.2622 14.84C20.1267 15.3144 19.946 16.0598 19.6749 17.0988C19.4039 18.1378 19.2232 18.9284 19.0876 19.4705C19.0425 19.5834 18.9973 19.6964 18.9069 19.8093C18.8166 19.9222 18.7488 19.9674 18.7036 19.9674C17.3484 20.0578 16.0157 20.1029 14.683 20.1029C14.4572 20.1255 14.2765 20.0578 14.1861 19.8997C14.0732 19.7641 14.0506 19.5608 14.1184 19.3124C14.4572 17.7312 14.8186 16.1501 15.18 14.5464C15.9254 11.2486 16.4449 9.035 16.7159 7.95079C16.8063 7.5668 16.9644 6.95694 17.2129 6.12119C17.4613 5.30804 17.642 4.67558 17.755 4.24642C18.0486 2.98151 18.4778 1.96507 19.0199 1.15191C19.2232 0.835686 19.5168 0.677573 19.9008 0.654986C22.0014 0.564635 23.8536 0.451697 25.4574 0.31617C26.135 0.270996 26.6545 0.361346 27.0385 0.564635C27.3999 0.767924 27.7161 1.15191 27.942 1.7166C28.5744 3.34291 29.0714 4.74335 29.4554 5.96308C29.5457 6.3019 29.9297 7.77009 30.6073 10.3451L31.9626 15.5854C32.0078 15.8339 32.1433 16.3534 32.3466 17.1214C32.5273 17.8894 32.6854 18.4992 32.7983 18.9058C32.7983 18.9736 32.8209 19.0413 32.8661 19.1317C32.9113 19.222 32.9339 19.2898 32.979 19.3576C33.0016 19.4253 33.0242 19.4931 33.0468 19.5383C33.0694 19.606 33.092 19.6512 33.092 19.6738C33.092 19.719 33.0694 19.719 33.0242 19.719ZM21.8207 6.32448C21.64 8.44772 21.5497 9.59969 21.5271 9.82557C21.4819 10.2547 21.6852 10.458 22.1144 10.458C23.7859 10.458 24.8023 10.458 25.1637 10.458C25.3896 10.458 25.5251 10.4128 25.6155 10.3225C25.7058 10.2321 25.7284 10.074 25.7058 9.84815C25.4799 7.92821 25.3444 6.86659 25.3218 6.64071C25.2992 6.59553 25.2541 6.52777 25.2089 6.46001C25.1411 6.39225 25.0734 6.34707 25.0282 6.34707C24.6216 6.34707 23.5374 6.32448 21.8207 6.32448ZM36.2918 8.83171L31.7065 9.17053C31.6162 7.95079 31.5936 7.31834 31.5936 7.22799C31.5484 6.4826 31.5258 5.42098 31.4807 4.06572C31.4355 2.71046 31.4129 1.76178 31.4129 1.21968C31.3677 0.406521 31.7517 -5.66594e-05 32.5649 -5.66594e-05C33.0166 0.022532 33.7846 0.0677067 34.8236 0.112881C35.8627 0.180645 36.6532 0.225821 37.1953 0.225821C37.8278 0.248408 38.8442 0.248408 40.2673 0.248408C41.6903 0.248408 42.7293 0.248408 43.3618 0.270996C44.0846 0.293583 45.101 0.406521 46.4563 0.60981C46.7951 0.654986 47.021 0.767924 47.1339 0.903449C47.2468 1.03897 47.292 1.28744 47.292 1.64884C47.292 1.91989 47.2694 2.30388 47.2243 2.80081C47.1791 3.29774 47.1339 3.65914 47.1339 3.83984C47.1113 3.97537 47.0887 4.63041 47.0887 5.82756C47.0661 6.82141 47.0661 7.36351 47.0661 7.40869C47.0661 7.47645 46.9984 8.01856 46.908 9.05759C44.9655 9.2157 43.9265 9.30605 43.7683 9.30605C43.3618 9.35123 43.0907 9.41899 42.9778 9.55452C42.8648 9.69004 42.8423 9.93851 42.8874 10.3225C42.9778 10.9549 43.023 11.6326 43.0455 12.378C43.0455 13.1234 43.0455 13.7332 43.023 14.2076C43.0004 14.7045 42.9552 15.4047 42.8874 16.3082C42.7971 17.2343 42.7519 17.8668 42.7519 18.2282V19.5383L35.9982 20.3288C36.0885 16.4212 36.2015 12.5813 36.2918 8.83171ZM58.9285 5.5565V15.6306L61.0518 15.5402V16.1275C61.0969 17.6635 61.1421 18.5896 61.1647 18.8606C61.1647 19.0865 61.1195 19.2446 61.0292 19.335C60.9388 19.4253 60.7807 19.4705 60.5774 19.4705C58.1605 19.606 56.602 19.6738 55.8792 19.719C54.6595 19.8093 53.2364 19.8997 51.565 20.0352C51.4068 20.0578 51.0229 20.1255 50.3904 20.2385C50.029 20.3062 49.8257 20.1707 49.7805 19.8545C49.6902 19.3124 49.6224 18.9961 49.6224 18.8606C49.5321 17.9345 49.4643 17.2569 49.4643 16.8277C49.4417 16.5115 49.4869 16.3082 49.5998 16.1727C49.7128 16.0598 49.9161 15.992 50.2323 15.9468C50.3452 15.9468 50.9551 15.9242 52.0393 15.8339C52.1296 13.033 52.2426 9.80298 52.3781 6.14378H49.4643C49.2384 3.95278 49.1255 2.75564 49.1255 2.55235C49.0803 2.16836 49.0577 1.67143 49.0577 1.08415C49.0351 0.632397 49.261 0.406521 49.7579 0.361346C52.6943 0.225821 54.5465 0.158057 55.3597 0.158057C56.0825 0.158057 57.6184 0.225821 59.9676 0.361346C60.0127 0.383934 60.1031 0.42911 60.1934 0.496872C60.2838 0.587222 60.3515 0.654986 60.3515 0.700161C60.3967 1.19709 60.4645 1.91989 60.5548 2.8234C60.6452 3.7269 60.6904 4.31418 60.713 4.54006C60.7581 4.94664 60.5774 5.1951 60.1934 5.26286C60.1483 5.26286 59.7191 5.3758 58.9285 5.5565ZM68.6121 12.6264C68.5443 13.1234 68.454 14.3205 68.3185 16.263C68.1829 18.2056 68.07 19.4705 68.0022 20.0126H62.92C62.92 19.6512 62.8748 19.0187 62.8297 18.0926C62.7845 17.1891 62.7619 16.4663 62.7619 15.9468C62.7619 15.2918 62.8071 14.2979 62.8974 12.9427C62.9878 11.61 63.0329 10.5935 63.0555 9.91592C63.0555 9.10276 63.0555 7.92821 63.0329 6.39225C63.0104 4.85629 63.0104 3.86243 63.0104 3.38809C62.9878 3.32033 63.0329 2.57493 63.1233 1.15191C63.575 0.9938 64.0494 0.880862 64.5915 0.790511C65.111 0.722748 65.5628 0.677573 65.9242 0.677573C66.2856 0.677573 66.8051 0.700161 67.4375 0.700161C68.07 0.722748 68.5217 0.722748 68.8154 0.722748C68.9961 0.722748 69.1994 0.858275 69.4252 1.12933C70.3288 2.30388 71.5033 4.81111 72.9489 8.62842C72.9489 8.6736 73.1522 9.08018 73.5136 9.89333C73.6717 9.05759 73.8298 7.47645 73.9654 5.14993C74.1009 2.8234 74.259 1.24226 74.4397 0.42911C77.2406 0.42911 78.7991 0.42911 79.1153 0.406521C79.3412 0.406521 79.5219 0.474284 79.6574 0.587222C79.793 0.722748 79.8607 0.835686 79.9059 0.948625C79.9285 1.06156 79.9511 1.21968 79.9737 1.40038C80.0189 2.10059 80.0414 3.32033 80.064 5.05958C80.064 5.57909 80.0414 6.3019 79.9963 7.25058C79.9511 7.79268 79.9059 8.53807 79.8607 9.53193C79.793 10.5258 79.7478 11.4067 79.7026 12.2199C79.6574 13.033 79.6349 13.7784 79.6123 14.4786C79.5671 15.337 79.5897 16.5115 79.68 18.0023C79.68 18.2282 79.6574 18.3863 79.5671 18.4766C79.4767 18.567 79.3412 18.6573 79.1605 18.7251C78.4829 18.951 77.8504 19.1317 77.218 19.222C76.5855 19.3124 75.9757 19.3576 75.411 19.3576C74.8237 19.3576 74.1687 19.335 73.4233 19.3124C73.1748 19.3124 72.9715 19.3124 72.7908 19.2898C72.6101 19.2898 72.4746 19.2672 72.4068 19.2672C72.3165 19.2672 72.1132 19.2898 71.7744 19.2898C71.5259 19.2898 71.3452 19.2446 71.2323 19.1543C71.1193 19.0639 71.029 18.8832 70.9612 18.6573C70.8257 18.2959 70.4643 17.2795 69.877 15.608C69.2897 13.9591 68.9283 12.9652 68.838 12.649L68.6121 12.6264ZM98.8569 3.16221C98.4052 3.95278 98.1793 4.35936 98.1793 4.40453C97.2984 5.91791 96.7789 6.82141 96.5982 7.09246C96.3723 7.40869 96.0335 7.58939 95.5817 7.61198C95.13 7.63457 94.7686 7.49904 94.4975 7.22799C94.091 6.86659 93.4585 6.57295 92.555 6.34707C91.4708 6.12119 90.635 6.09861 90.0252 6.27931C89.0087 6.59553 88.1956 7.0247 87.5631 7.52163C86.9307 8.01856 86.5467 8.74136 86.3886 9.64487C86.2079 10.6839 86.253 11.4971 86.5467 12.0392C86.9533 12.7845 87.6083 13.3944 88.5118 13.8688C89.2346 14.2753 90.2285 14.3205 91.4482 14.0043C91.9225 13.8913 92.1484 13.5977 92.1484 13.1008C92.1258 12.6716 92.171 12.1295 92.2839 11.4745C92.2839 11.4067 92.3517 11.3164 92.4421 11.226C92.5324 11.1357 92.6002 11.0905 92.6905 11.0905C93.9103 11.1131 95.1074 11.1582 96.2368 11.2034C96.3723 11.2034 96.5078 11.2486 96.6208 11.2938C96.7111 11.3389 96.8241 11.4519 96.9144 11.5874C97.0048 11.7455 97.0499 11.8359 97.0725 11.881C97.0951 11.9262 97.1629 12.0617 97.2532 12.265C97.4113 12.649 97.4791 13.033 97.4565 13.4396C97.321 14.9981 97.1855 16.376 97.0048 17.5957C96.937 18.0023 96.7563 18.5218 96.4627 19.1994C96.3949 19.335 96.2142 19.4479 95.898 19.5157C95.785 19.5608 95.6269 19.606 95.4236 19.6512C95.2203 19.6964 95.0622 19.7415 94.9267 19.7867C94.7912 19.8319 94.6556 19.8545 94.4749 19.8771C94.2942 19.8997 94.1361 19.8997 94.0006 19.8997C91.8096 19.8093 89.9122 19.6738 88.3085 19.4705C88.0826 19.4479 87.8342 19.3801 87.6083 19.2898C87.3824 19.1994 87.1114 19.0865 86.7951 18.9284C86.4789 18.7929 86.253 18.6799 86.1175 18.6122C86.0046 18.567 85.8465 18.4992 85.6658 18.4089C85.4625 18.3185 85.3269 18.2733 85.2592 18.2282C83.7684 17.5957 82.5487 16.4663 81.6 14.8852C81.4645 14.6593 81.3515 14.185 81.2612 13.4622C81.1256 12.4683 81.0353 11.4971 80.9901 10.5935C80.9901 10.3903 80.9901 10.2547 80.9675 10.2096C80.9449 10.1644 80.9675 10.0514 81.0127 9.84815C81.0579 9.64487 81.0579 9.50934 81.0579 9.46416C81.0579 9.41899 81.0805 9.30605 81.1482 9.10276C81.1934 8.92206 81.2386 8.78654 81.2386 8.74136C81.2386 8.69619 81.2838 8.58325 81.3515 8.37996C81.3967 8.19926 81.4419 8.08632 81.4645 8.04114C81.4645 7.99597 81.5096 7.88303 81.6 7.67974C81.6678 7.47645 81.7129 7.36351 81.7129 7.31834C82.4357 5.30804 83.6329 3.59138 85.3495 2.14577C86.3208 1.33261 87.405 0.858275 88.6247 0.722748C88.7151 0.722748 89.0313 0.654986 89.6186 0.564635C90.2059 0.474284 90.6576 0.42911 90.9739 0.42911C91.5611 0.42911 92.3743 0.542048 93.4585 0.745337C94.4072 0.926037 95.5591 1.19709 96.9144 1.51332C97.2306 1.60367 97.4339 1.76178 97.5017 1.94248C97.6146 2.30388 97.9083 2.59752 98.4052 2.77822C98.4504 2.8234 98.5181 2.84599 98.5859 2.89116C98.6311 2.93634 98.6988 3.0041 98.744 3.04928C98.7892 3.11704 98.8344 3.16221 98.8569 3.16221Z" fill="#FF6A3B"/>
</svg>
