<svg width="50" height="45" viewBox="0 0 50 45" fill="none" xmlns="http://www.w3.org/2000/svg">
<path d="M1.41711 16.7058H47.7092V20.9571C47.7092 33.7404 37.3464 44.1032 24.5632 44.1032C11.78 44.1032 1.41711 33.7403 1.41711 20.9571V16.7058Z" fill="url(#paint0_linear_2526_4085)"/>
<g filter="url(#filter0_d_2526_4085)">
<ellipse cx="24.5632" cy="16.7057" rx="23.1461" ry="6.61316" fill="url(#paint1_linear_2526_4085)"/>
</g>
<circle cx="10.156" cy="12.7717" r="4.01513" fill="#FF5900"/>
<rect x="18.8947" y="1.87524" width="8.35164" height="8.35164" rx="1.09349" transform="rotate(-12.9759 18.8947 1.87524)" fill="url(#paint2_linear_2526_4085)"/>
<path d="M38.2553 8.4636C38.547 8.1419 39.0776 8.2566 39.2103 8.67007L41.0025 14.2519C41.1353 14.6654 40.7707 15.0675 40.3462 14.9758L34.6161 13.737C34.1916 13.6452 34.0257 13.1284 34.3174 12.8066L38.2553 8.4636Z" fill="#FF5900"/>
<circle cx="12.8683" cy="8.1971" r="0.545977" fill="#00BC9D"/>
<circle cx="31.5891" cy="14.6773" r="0.545977" fill="#00BC9D"/>
<defs>
<filter id="filter0_d_2526_4085" x="1.07288e-06" y="8.67542" width="49.1263" height="16.0605" filterUnits="userSpaceOnUse" color-interpolation-filters="sRGB">
<feFlood flood-opacity="0" result="BackgroundImageFix"/>
<feColorMatrix in="SourceAlpha" type="matrix" values="0 0 0 0 0 0 0 0 0 0 0 0 0 0 0 0 0 0 127 0" result="hardAlpha"/>
<feOffset/>
<feGaussianBlur stdDeviation="0.708553"/>
<feComposite in2="hardAlpha" operator="out"/>
<feColorMatrix type="matrix" values="0 0 0 0 1 0 0 0 0 1 0 0 0 0 1 0 0 0 0.32 0"/>
<feBlend mode="normal" in2="BackgroundImageFix" result="effect1_dropShadow_2526_4085"/>
<feBlend mode="normal" in="SourceGraphic" in2="effect1_dropShadow_2526_4085" result="shape"/>
</filter>
<linearGradient id="paint0_linear_2526_4085" x1="24.5632" y1="15.0525" x2="24.5632" y2="46.7012" gradientUnits="userSpaceOnUse">
<stop stop-color="#FF6A3B"/>
<stop offset="0.0110992" stop-color="#FFD1C2"/>
<stop offset="1" stop-color="#FF6A3B"/>
</linearGradient>
<linearGradient id="paint1_linear_2526_4085" x1="24.5632" y1="29.6958" x2="25.0355" y2="5.84121" gradientUnits="userSpaceOnUse">
<stop stop-color="#FF6A3B"/>
<stop offset="1" stop-color="#F9DBD1"/>
</linearGradient>
<linearGradient id="paint2_linear_2526_4085" x1="24.1464" y1="2.5105" x2="20.8369" y2="9.84496" gradientUnits="userSpaceOnUse">
<stop stop-color="#FF9B7C"/>
<stop offset="1" stop-color="#FF6A3B"/>
</linearGradient>
</defs>
</svg>
