<svg width="36" height="36" viewBox="0 0 36 36" fill="none" xmlns="http://www.w3.org/2000/svg">
<path d="M31.5752 28.0603L19.5918 5.80641C18.7425 4.22859 16.4798 4.22859 15.6297 5.80641L3.64707 28.0603C3.46265 28.4028 3.37019 28.7873 3.37871 29.1763C3.38724 29.5652 3.49646 29.9453 3.69571 30.2794C3.89497 30.6135 4.17745 30.8903 4.51558 31.0826C4.85371 31.275 5.23594 31.3764 5.62496 31.377H29.5938C29.9831 31.377 30.3658 31.276 30.7044 31.0839C31.043 30.8918 31.326 30.6151 31.5257 30.2809C31.7253 29.9467 31.8348 29.5664 31.8435 29.1771C31.8522 28.7879 31.7598 28.4031 31.5752 28.0603ZM17.6111 27.9316C17.333 27.9316 17.0611 27.8492 16.8299 27.6946C16.5986 27.5401 16.4184 27.3205 16.3119 27.0635C16.2055 26.8066 16.1776 26.5238 16.2319 26.251C16.2862 25.9783 16.4201 25.7277 16.6168 25.531C16.8134 25.3344 17.064 25.2004 17.3368 25.1462C17.6096 25.0919 17.8923 25.1197 18.1493 25.2262C18.4062 25.3326 18.6259 25.5129 18.7804 25.7441C18.9349 25.9754 19.0174 26.2473 19.0174 26.5254C19.0174 26.8984 18.8692 27.256 18.6055 27.5198C18.3418 27.7835 17.9841 27.9316 17.6111 27.9316ZM19.1383 13.7883L18.7347 22.3664C18.7347 22.6648 18.6162 22.9509 18.4052 23.1619C18.1942 23.3729 17.9081 23.4914 17.6097 23.4914C17.3114 23.4914 17.0252 23.3729 16.8142 23.1619C16.6033 22.9509 16.4847 22.6648 16.4847 22.3664L16.0811 13.7918C16.0721 13.5869 16.1043 13.3823 16.176 13.1901C16.2477 12.998 16.3574 12.8222 16.4985 12.6733C16.6395 12.5244 16.8091 12.4055 16.9971 12.3236C17.1852 12.2416 17.3878 12.1984 17.5929 12.1964H17.6076C17.8141 12.1963 18.0185 12.238 18.2084 12.3191C18.3983 12.4001 18.5698 12.5188 18.7126 12.668C18.8554 12.8171 18.9665 12.9937 19.0392 13.1869C19.1119 13.3802 19.1446 13.5862 19.1355 13.7925L19.1383 13.7883Z" fill="#FF5900"/>
</svg>
