<svg width="48" height="48" viewBox="0 0 48 48" fill="none" xmlns="http://www.w3.org/2000/svg">
<rect width="48" height="48" rx="24" fill="#FF5900"/>
<path d="M16.8398 22.7792C16.2679 22.3154 15.4282 22.4031 14.9644 22.975C14.5006 23.547 14.5882 24.3867 15.1602 24.8505L16 23.8149L16.8398 22.7792ZM16.0777 23.8778L17.2794 23.3002L17.1498 23.0306L16.9175 22.8422L16.0777 23.8778ZM16.2366 24.2085L15.0349 24.7861L16.2366 24.2085ZM16.5599 24.6595L15.7723 25.7354L16.5599 24.6595ZM17.7434 25.7441L18.9215 25.1198L17.7434 25.7441ZM17.9372 26.1099L16.7591 26.7342L17.9372 26.1099ZM18.2332 26.3809L17.6937 27.6002V27.6002L18.2332 26.3809ZM18.4323 26.469L17.8927 27.6883L18.4323 26.469ZM18.6314 26.5571L19.171 25.3378L18.6314 26.5571ZM18.9826 26.7769L18.1097 27.7848L18.9826 26.7769ZM19.2867 27.0403L18.4138 28.0482L19.2867 27.0403ZM19.5179 27.3715L18.2786 27.8632L19.5179 27.3715ZM19.597 27.5709L18.3577 28.0626L19.597 27.5709ZM19.6762 27.7703L18.4368 28.262L19.6762 27.7703ZM19.9283 28.082L19.2025 29.2005L19.9283 28.082ZM20.1013 28.1943L19.3755 29.3128L20.1013 28.1943ZM20.2744 28.3066L21.0002 27.1881L20.2744 28.3066ZM20.5654 28.5822L19.4849 29.3634L20.5654 28.5822ZM20.8016 28.9088L21.8821 28.1276L20.8016 28.9088ZM21.0307 29.2419L22.1465 28.512L21.0307 29.2419ZM21.1417 29.4117L20.0259 30.1415L21.1417 29.4117ZM21.2528 29.5814L20.137 30.3113L21.2528 29.5814ZM21.5485 29.8527L22.1909 28.6844L21.5485 29.8527ZM21.9177 30.0558L21.2753 31.2241L21.9177 30.0558ZM22.1977 30.2295L21.3932 31.2927L22.1977 30.2295ZM22.2931 30.3016L23.0976 29.2384L22.2931 30.3016ZM22.3885 30.3738L21.5839 31.4371L22.3885 30.3738ZM22.5829 30.2708L21.422 29.6148L22.5829 30.2708ZM22.6819 30.0955L23.8427 30.7515L22.6819 30.0955ZM22.7809 29.9203L21.62 29.2644L22.7809 29.9203ZM23.0439 29.6169L22.2229 28.5663V28.5663L23.0439 29.6169ZM23.372 29.3605L24.193 30.4111V30.4111L23.372 29.3605ZM23.6242 29.0493L24.8255 29.6278L23.6242 29.0493ZM23.7124 28.8662L22.5111 28.2877L23.7124 28.8662ZM23.8005 28.6832L22.5992 28.1046L23.8005 28.6832ZM24.0267 28.3531L23.0544 27.4407L24.0267 28.3531ZM24.1647 28.206L25.1369 29.1185L24.1647 28.206ZM24.3026 28.059L23.3304 27.1466L24.3026 28.059ZM25.1183 27.1679L26.2646 27.8488L25.1183 27.1679ZM25.3233 26.8226L24.177 26.1417L25.3233 26.8226ZM25.4885 26.4484L26.7619 26.8436L25.4885 26.4484ZM25.6136 26.0452L24.3402 25.65L25.6136 26.0452ZM25.8724 25.7388L26.5007 26.9148L25.8724 25.7388ZM26.265 25.5291L25.6368 24.353L26.265 25.5291ZM26.5359 25.2313L25.2921 24.7508L26.5359 25.2313ZM26.6849 24.8454L27.9287 25.326L26.6849 24.8454ZM26.8162 24.4467L28.1016 24.801L26.8162 24.4467ZM26.9296 24.0351L25.6442 23.6809L26.9296 24.0351ZM27.1351 23.6901L28.0461 24.6637L27.1351 23.6901ZM27.2839 23.5509L28.1949 24.5245L27.2839 23.5509ZM27.4327 23.4117L26.5217 22.4381L27.4327 23.4117ZM27.6744 23.0929L28.8586 23.7057L27.6744 23.0929ZM27.7674 22.9133L26.5832 22.3004L27.7674 22.9133ZM27.8603 22.7337L29.0445 23.3465L27.8603 22.7337ZM28.1098 22.4205L27.2443 21.4062L28.1098 22.4205ZM28.2664 22.2869L29.1319 23.3011L28.2664 22.2869ZM28.423 22.1533L29.2885 23.1675L28.423 22.1533ZM28.806 21.443L27.565 20.9556L28.806 21.443ZM29.0171 21.102L28.0313 20.2042L29.0171 21.102ZM29.1526 20.9532L30.1384 21.851L29.1526 20.9532ZM29.2881 20.8044L28.3023 19.9066L29.2881 20.8044ZM29.5478 20.4985L28.5016 19.6718L29.5478 20.4985ZM29.796 20.1844L30.8421 21.011L29.796 20.1844ZM30.0998 19.9105L29.3733 18.7925L30.0998 19.9105ZM30.4594 19.6768L31.186 20.7948L30.4594 19.6768ZM30.7601 19.4007L29.6983 18.5943L30.7601 19.4007ZM31.0021 19.082L32.0639 19.8884L31.0021 19.082ZM31.1419 18.6895L32.4709 18.7968L31.1419 18.6895ZM31.1607 18.4563L29.8317 18.349L31.1607 18.4563ZM31.1796 18.2231L32.5086 18.3304L31.1796 18.2231ZM31.329 17.8376L32.3414 18.7052L31.329 17.8376ZM31.5902 17.5328L30.5777 16.6652L31.5902 17.5328ZM31.7906 17.3687L31.5691 16.0538L31.7906 17.3687ZM31.8604 17.3569L32.6321 16.2696L32.1825 15.9505L31.6389 16.0421L31.8604 17.3569ZM31.9414 17.4144L31.1697 18.5017L32.2475 19.2667L33.0219 18.1957L31.9414 17.4144ZM33.0805 18.1146C33.5119 17.5179 33.378 16.6844 32.7813 16.2529C32.1845 15.8214 31.351 15.9554 30.9195 16.5521L32 17.3334L33.0805 18.1146ZM16 23.8149L15.1602 24.8505L15.2379 24.9135L16.0777 23.8778L16.9175 22.8422L16.8398 22.7792L16 23.8149ZM16.0777 23.8778L14.8759 24.4554L15.0349 24.7861L16.2366 24.2085L17.4383 23.6309L17.2794 23.3002L16.0777 23.8778ZM16.2366 24.2085L15.0349 24.7861C15.171 25.0693 15.3952 25.4593 15.7723 25.7354L16.5599 24.6595L17.3475 23.5837C17.3956 23.6189 17.4286 23.6508 17.4483 23.6716C17.4681 23.6926 17.4784 23.7068 17.4806 23.7098C17.4829 23.713 17.4796 23.7088 17.4716 23.6949C17.4636 23.6811 17.4524 23.6602 17.4383 23.6309L16.2366 24.2085ZM16.5599 24.6595L15.7723 25.7354L15.9366 25.8557L16.7243 24.7799L17.5119 23.704L17.3475 23.5837L16.5599 24.6595ZM16.7243 24.7799L15.9366 25.8557L16.101 25.976L16.8886 24.9002L17.6763 23.8244L17.5119 23.704L16.7243 24.7799ZM16.8886 24.9002L16.101 25.976C16.1728 26.0286 16.2402 26.0837 16.3034 26.1414L17.2013 25.1557L18.0992 24.17C17.9647 24.0474 17.8236 23.9322 17.6763 23.8244L16.8886 24.9002ZM17.2013 25.1557L16.3034 26.1414L16.4518 26.2765L17.3497 25.2908L18.2476 24.3052L18.0992 24.17L17.2013 25.1557ZM17.3497 25.2908L16.4518 26.2765L16.6002 26.4117L17.4981 25.426L18.396 24.4403L18.2476 24.3052L17.3497 25.2908ZM17.4981 25.426L16.6002 26.4117C16.5921 26.4043 16.5844 26.3959 16.5778 26.3874C16.5712 26.3788 16.5672 26.372 16.5652 26.3684L17.7434 25.7441L18.9215 25.1198C18.7873 24.8664 18.612 24.6371 18.396 24.4403L17.4981 25.426ZM17.7434 25.7441L16.5652 26.3684L16.6622 26.5513L17.8403 25.927L19.0184 25.3027L18.9215 25.1198L17.7434 25.7441ZM17.8403 25.927L16.6622 26.5513L16.7591 26.7342L17.9372 26.1099L19.1154 25.4856L19.0184 25.3027L17.8403 25.927ZM17.9372 26.1099L16.7591 26.7342C16.9714 27.1348 17.3026 27.4271 17.6937 27.6002L18.2332 26.3809L18.7728 25.1616C18.8275 25.1858 18.894 25.2252 18.9601 25.2857C19.0267 25.3467 19.0786 25.4161 19.1154 25.4856L17.9372 26.1099ZM18.2332 26.3809L17.6937 27.6002L17.8927 27.6883L18.4323 26.469L18.9719 25.2497L18.7728 25.1616L18.2332 26.3809ZM18.4323 26.469L17.8927 27.6883L18.0918 27.7764L18.6314 26.5571L19.171 25.3378L18.9719 25.2497L18.4323 26.469ZM18.6314 26.5571L18.0918 27.7764C18.1031 27.7814 18.1092 27.7849 18.1113 27.7863C18.1133 27.7875 18.1124 27.7871 18.1097 27.7848L18.9826 26.7769L19.8555 25.769C19.6462 25.5878 19.4148 25.4457 19.171 25.3378L18.6314 26.5571ZM18.9826 26.7769L18.1097 27.7848L18.2617 27.9165L19.1346 26.9086L20.0075 25.9007L19.8555 25.769L18.9826 26.7769ZM19.1346 26.9086L18.2617 27.9165L18.4138 28.0482L19.2867 27.0403L20.1596 26.0324L20.0075 25.9007L19.1346 26.9086ZM19.2867 27.0403L18.4138 28.0482C18.3427 27.9866 18.2994 27.9156 18.2786 27.8632L19.5179 27.3715L20.7573 26.8798C20.631 26.5614 20.4335 26.2697 20.1596 26.0324L19.2867 27.0403ZM19.5179 27.3715L18.2786 27.8632L18.3577 28.0626L19.597 27.5709L20.8364 27.0792L20.7573 26.8798L19.5179 27.3715ZM19.597 27.5709L18.3577 28.0626L18.4368 28.262L19.6762 27.7703L20.9155 27.2786L20.8364 27.0792L19.597 27.5709ZM19.6762 27.7703L18.4368 28.262C18.5872 28.6411 18.8454 28.9688 19.2025 29.2005L19.9283 28.082L20.6541 26.9636C20.7107 27.0003 20.7666 27.0492 20.8154 27.1094C20.8638 27.1693 20.8957 27.2287 20.9155 27.2786L19.6762 27.7703ZM19.9283 28.082L19.2025 29.2005L19.3755 29.3128L20.1013 28.1943L20.8271 27.0758L20.6541 26.9636L19.9283 28.082ZM20.1013 28.1943L19.3755 29.3128L19.5486 29.4251L20.2744 28.3066L21.0002 27.1881L20.8271 27.0758L20.1013 28.1943ZM20.2744 28.3066L19.5486 29.4251C19.5402 29.4196 19.5291 29.4113 19.517 29.3999C19.5048 29.3884 19.494 29.3759 19.4849 29.3634L20.5654 28.5822L21.646 27.801C21.4686 27.5556 21.2502 27.3504 21.0002 27.1881L20.2744 28.3066ZM20.5654 28.5822L19.4849 29.3634L19.603 29.5266L20.6835 28.7455L21.764 27.9643L21.646 27.801L20.5654 28.5822ZM20.6835 28.7455L19.603 29.5266L19.721 29.6899L20.8016 28.9088L21.8821 28.1276L21.764 27.9643L20.6835 28.7455ZM20.8016 28.9088L19.721 29.6899C19.7875 29.7819 19.8521 29.8758 19.9148 29.9717L21.0307 29.2419L22.1465 28.512C22.0612 28.3816 21.973 28.2534 21.8821 28.1276L20.8016 28.9088ZM21.0307 29.2419L19.9148 29.9717L20.0259 30.1415L21.1417 29.4117L22.2576 28.6818L22.1465 28.512L21.0307 29.2419ZM21.1417 29.4117L20.0259 30.1415L20.137 30.3113L21.2528 29.5814L22.3686 28.8516L22.2576 28.6818L21.1417 29.4117ZM21.2528 29.5814L20.137 30.3113C20.3352 30.6144 20.5993 30.8524 20.906 31.0211L21.5485 29.8527L22.1909 28.6844C22.2181 28.6994 22.2505 28.7213 22.2837 28.7517C22.317 28.7823 22.3456 28.8165 22.3686 28.8516L21.2528 29.5814ZM21.5485 29.8527L20.906 31.0211L21.0907 31.1226L21.7331 29.9543L22.3755 28.7859L22.1909 28.6844L21.5485 29.8527ZM21.7331 29.9543L21.0907 31.1226L21.2753 31.2241L21.9177 30.0558L22.5601 28.8874L22.3755 28.7859L21.7331 29.9543ZM21.9177 30.0558L21.2753 31.2241C21.3217 31.2497 21.3549 31.2692 21.3772 31.283C21.4009 31.2977 21.4038 31.3008 21.3932 31.2927L22.1977 30.2295L23.0022 29.1662C22.8627 29.0606 22.7041 28.9666 22.5601 28.8874L21.9177 30.0558ZM22.1977 30.2295L21.3932 31.2927L21.4886 31.3649L22.2931 30.3016L23.0976 29.2384L23.0022 29.1662L22.1977 30.2295ZM22.2931 30.3016L21.4886 31.3649L21.5839 31.4371L22.3885 30.3738L23.193 29.3106L23.0976 29.2384L22.2931 30.3016ZM22.3885 30.3738L21.5839 31.4371C21.7476 31.5609 21.987 31.6872 22.2942 31.7202C22.6097 31.754 22.891 31.6779 23.1093 31.5622C23.486 31.3625 23.6747 31.0489 23.7437 30.9267L22.5829 30.2708L21.422 29.6148C21.4251 29.6095 21.5484 29.3714 21.8603 29.2061C22.0461 29.1076 22.2951 29.0383 22.5785 29.0687C22.8537 29.0982 23.0611 29.2108 23.193 29.3106L22.3885 30.3738ZM22.5829 30.2708L23.7437 30.9267L23.8427 30.7515L22.6819 30.0955L21.521 29.4396L21.422 29.6148L22.5829 30.2708ZM22.6819 30.0955L23.8427 30.7515L23.9417 30.5763L22.7809 29.9203L21.62 29.2644L21.521 29.4396L22.6819 30.0955ZM22.7809 29.9203L23.9417 30.5763C23.9311 30.5951 23.9181 30.6135 23.9036 30.6303C23.8891 30.647 23.8755 30.6593 23.8649 30.6675L23.0439 29.6169L22.2229 28.5663C21.9803 28.7559 21.7753 28.9897 21.62 29.2644L22.7809 29.9203ZM23.0439 29.6169L23.8649 30.6675L24.029 30.5393L23.208 29.4887L22.387 28.4381L22.2229 28.5663L23.0439 29.6169ZM23.208 29.4887L24.029 30.5393L24.193 30.4111L23.372 29.3605L22.551 28.3099L22.387 28.4381L23.208 29.4887ZM23.372 29.3605L24.193 30.4111C24.4596 30.2028 24.6756 29.939 24.8255 29.6278L23.6242 29.0493L22.4229 28.4708C22.4552 28.4037 22.5032 28.3473 22.551 28.3099L23.372 29.3605ZM23.6242 29.0493L24.8255 29.6278L24.9136 29.4448L23.7124 28.8662L22.5111 28.2877L22.4229 28.4708L23.6242 29.0493ZM23.7124 28.8662L24.9136 29.4448L25.0018 29.2617L23.8005 28.6832L22.5992 28.1046L22.5111 28.2877L23.7124 28.8662ZM23.8005 28.6832L25.0018 29.2617C25.0024 29.2606 25.0022 29.2611 25.0011 29.2627C25.0006 29.2634 25.0001 29.264 24.9997 29.2646C24.9995 29.2649 24.9993 29.2651 24.9991 29.2652C24.9991 29.2653 24.999 29.2654 24.999 29.2654C24.999 29.2654 24.999 29.2655 24.9989 29.2655C24.9989 29.2655 24.9989 29.2655 24.9989 29.2655L24.0267 28.3531L23.0544 27.4407C22.8688 27.6384 22.7165 27.8612 22.5992 28.1046L23.8005 28.6832ZM24.0267 28.3531L24.9989 29.2655L25.1369 29.1185L24.1647 28.206L23.1924 27.2936L23.0544 27.4407L24.0267 28.3531ZM24.1647 28.206L25.1369 29.1185L25.2749 28.9714L24.3026 28.059L23.3304 27.1466L23.1924 27.2936L24.1647 28.206ZM24.3026 28.059L25.2749 28.9714C25.3562 28.8848 25.4393 28.7993 25.5242 28.715L24.5844 27.7691L23.6446 26.8233C23.5378 26.9294 23.4331 27.0372 23.3304 27.1466L24.3026 28.059ZM24.5844 27.7691L25.5242 28.715L25.6679 28.5721L24.7282 27.6263L23.7884 26.6804L23.6446 26.8233L24.5844 27.7691ZM24.7282 27.6263L25.6679 28.5721L25.8117 28.4293L24.8719 27.4834L23.9322 26.5376L23.7884 26.6804L24.7282 27.6263ZM24.8719 27.4834L25.8117 28.4293C25.9866 28.2555 26.1383 28.0615 26.2646 27.8488L25.1183 27.1679L23.9719 26.4871C23.9615 26.5046 23.949 26.5209 23.9322 26.5376L24.8719 27.4834ZM25.1183 27.1679L26.2646 27.8488L26.3672 27.6761L25.2208 26.9953L24.0744 26.3144L23.9719 26.4871L25.1183 27.1679ZM25.2208 26.9953L26.3672 27.6761L26.4697 27.5034L25.3233 26.8226L24.177 26.1417L24.0744 26.3144L25.2208 26.9953ZM25.3233 26.8226L26.4697 27.5034C26.5941 27.294 26.6907 27.0728 26.7619 26.8436L25.4885 26.4484L24.2151 26.0531C24.2028 26.0927 24.1893 26.121 24.177 26.1417L25.3233 26.8226ZM25.4885 26.4484L26.7619 26.8436L26.8244 26.6421L25.551 26.2468L24.2776 25.8515L24.2151 26.0531L25.4885 26.4484ZM25.551 26.2468L26.8244 26.6421L26.887 26.4405L25.6136 26.0452L24.3402 25.65L24.2776 25.8515L25.551 26.2468ZM25.6136 26.0452L26.887 26.4405C26.8577 26.5348 26.8062 26.6358 26.7281 26.7283C26.651 26.8196 26.5679 26.879 26.5007 26.9148L25.8724 25.7388L25.2442 24.5628C24.8226 24.788 24.492 25.1609 24.3402 25.65L25.6136 26.0452ZM25.8724 25.7388L26.5007 26.9148L26.697 26.81L26.0687 25.6339L25.4405 24.4579L25.2442 24.5628L25.8724 25.7388ZM26.0687 25.6339L26.697 26.81L26.8933 26.7051L26.265 25.5291L25.6368 24.353L25.4405 24.4579L26.0687 25.6339ZM26.265 25.5291L26.8933 26.7051C27.2829 26.497 27.6056 26.1622 27.7796 25.7118L26.5359 25.2313L25.2921 24.7508C25.3249 24.6658 25.3758 24.5806 25.4445 24.5051C25.5122 24.4307 25.5819 24.3823 25.6368 24.353L26.265 25.5291ZM26.5359 25.2313L27.7796 25.7118L27.8541 25.5189L26.6104 25.0384L25.3667 24.5579L25.2921 24.7508L26.5359 25.2313ZM26.6104 25.0384L27.8541 25.5189L27.9287 25.326L26.6849 24.8454L25.4412 24.3649L25.3667 24.5579L26.6104 25.0384ZM26.6849 24.8454L27.9287 25.326C27.9948 25.1547 28.0524 24.9796 28.1016 24.801L26.8162 24.4467L25.5308 24.0925C25.5044 24.1883 25.4744 24.279 25.4412 24.3649L26.6849 24.8454ZM26.8162 24.4467L28.1016 24.801L28.1583 24.5952L26.8729 24.2409L25.5875 23.8867L25.5308 24.0925L26.8162 24.4467ZM26.8729 24.2409L28.1583 24.5952L28.215 24.3894L26.9296 24.0351L25.6442 23.6809L25.5875 23.8867L26.8729 24.2409ZM26.9296 24.0351L28.215 24.3894C28.2042 24.4287 28.1855 24.477 28.1549 24.5283C28.1241 24.58 28.0866 24.6258 28.0461 24.6637L27.1351 23.6901L26.2241 22.7165C25.9367 22.9855 25.7441 23.3185 25.6442 23.6809L26.9296 24.0351ZM27.1351 23.6901L28.0461 24.6637L28.1949 24.5245L27.2839 23.5509L26.3729 22.5773L26.2241 22.7165L27.1351 23.6901ZM27.2839 23.5509L28.1949 24.5245L28.3437 24.3853L27.4327 23.4117L26.5217 22.4381L26.3729 22.5773L27.2839 23.5509ZM27.4327 23.4117L28.3437 24.3853C28.553 24.1895 28.7263 23.9614 28.8586 23.7057L27.6744 23.0929L26.4903 22.48C26.4939 22.473 26.4989 22.465 26.5051 22.4568C26.5113 22.4486 26.5172 22.4423 26.5217 22.4381L27.4327 23.4117ZM27.6744 23.0929L28.8586 23.7057L28.9515 23.5261L27.7674 22.9133L26.5832 22.3004L26.4903 22.48L27.6744 23.0929ZM27.7674 22.9133L28.9515 23.5261L29.0445 23.3465L27.8603 22.7337L26.6762 22.1208L26.5832 22.3004L27.7674 22.9133ZM27.8603 22.7337L29.0445 23.3465C29.036 23.3629 29.0251 23.38 29.012 23.3964C28.999 23.4127 28.9862 23.4255 28.9753 23.4347L28.1098 22.4205L27.2443 21.4062C27.0112 21.6052 26.8188 21.8452 26.6762 22.1208L27.8603 22.7337ZM28.1098 22.4205L28.9753 23.4347L29.1319 23.3011L28.2664 22.2869L27.4009 21.2726L27.2443 21.4062L28.1098 22.4205ZM28.2664 22.2869L29.1319 23.3011L29.2885 23.1675L28.423 22.1533L27.5575 21.139L27.4009 21.2726L28.2664 22.2869ZM28.423 22.1533L29.2885 23.1675C29.5599 22.9358 29.766 22.6461 29.8961 22.3149L28.655 21.8275L27.414 21.34C27.4273 21.306 27.4467 21.2687 27.4732 21.2315C27.4998 21.1943 27.529 21.1633 27.5575 21.139L28.423 22.1533ZM28.655 21.8275L29.8961 22.3149L29.9716 22.1227L28.7305 21.6352L27.4895 21.1478L27.414 21.34L28.655 21.8275ZM28.7305 21.6352L29.9716 22.1227L30.0471 21.9305L28.806 21.443L27.565 20.9556L27.4895 21.1478L28.7305 21.6352ZM28.806 21.443L30.0471 21.9305C30.0439 21.9387 30.0385 21.9501 30.0303 21.9633C30.0222 21.9765 30.0127 21.9889 30.0028 21.9998L29.0171 21.102L28.0313 20.2042C27.8287 20.4266 27.6731 20.6802 27.565 20.9556L28.806 21.443ZM29.0171 21.102L30.0028 21.9998L30.1384 21.851L29.1526 20.9532L28.1668 20.0554L28.0313 20.2042L29.0171 21.102ZM29.1526 20.9532L30.1384 21.851L30.2739 21.7022L29.2881 20.8044L28.3023 19.9066L28.1668 20.0554L29.1526 20.9532ZM29.2881 20.8044L30.2739 21.7022C30.3851 21.5801 30.4918 21.4544 30.5939 21.3252L29.5478 20.4985L28.5016 19.6718C28.4383 19.752 28.3719 19.8303 28.3023 19.9066L29.2881 20.8044ZM29.5478 20.4985L30.5939 21.3252L30.718 21.1681L29.6719 20.3414L28.6257 19.5148L28.5016 19.6718L29.5478 20.4985ZM29.6719 20.3414L30.718 21.1681L30.8421 21.011L29.796 20.1844L28.7498 19.3577L28.6257 19.5148L29.6719 20.3414ZM29.796 20.1844L30.8421 21.011C30.836 21.0188 30.8305 21.0243 30.8267 21.0278C30.823 21.0311 30.8223 21.0311 30.8264 21.0285L30.0998 19.9105L29.3733 18.7925C29.1404 18.9439 28.9287 19.1313 28.7498 19.3577L29.796 20.1844ZM30.0998 19.9105L30.8264 21.0285L31.0062 20.9116L30.2796 19.7937L29.553 18.6757L29.3733 18.7925L30.0998 19.9105ZM30.2796 19.7937L31.0062 20.9116L31.186 20.7948L30.4594 19.6768L29.7328 18.5589L29.553 18.6757L30.2796 19.7937ZM30.4594 19.6768L31.186 20.7948C31.4254 20.6392 31.6419 20.4442 31.822 20.2071L30.7601 19.4007L29.6983 18.5943C29.7069 18.5829 29.7155 18.5738 29.7226 18.5673C29.7297 18.5608 29.7337 18.5583 29.7328 18.5589L30.4594 19.6768ZM30.7601 19.4007L31.822 20.2071L31.943 20.0477L30.8811 19.2414L29.8192 18.435L29.6983 18.5943L30.7601 19.4007ZM30.8811 19.2414L31.943 20.0477L32.0639 19.8884L31.0021 19.082L29.9402 18.2757L29.8192 18.435L30.8811 19.2414ZM31.0021 19.082L32.0639 19.8884C32.3231 19.5471 32.4414 19.1622 32.4709 18.7968L31.1419 18.6895L29.8129 18.5822C29.8173 18.5277 29.8424 18.4046 29.9402 18.2757L31.0021 19.082ZM31.1419 18.6895L32.4709 18.7968L32.4897 18.5636L31.1607 18.4563L29.8317 18.349L29.8129 18.5822L31.1419 18.6895ZM31.1607 18.4563L32.4897 18.5636L32.5086 18.3304L31.1796 18.2231L29.8506 18.1158L29.8317 18.349L31.1607 18.4563ZM31.1796 18.2231L32.5086 18.3304C32.5024 18.4074 32.4665 18.5592 32.3414 18.7052L31.329 17.8376L30.3166 16.9699C30.0173 17.3191 29.8819 17.7279 29.8506 18.1158L31.1796 18.2231ZM31.329 17.8376L32.3414 18.7052L32.472 18.5528L31.4596 17.6852L30.4471 16.8176L30.3166 16.9699L31.329 17.8376ZM31.4596 17.6852L32.472 18.5528L32.6026 18.4004L31.5902 17.5328L30.5777 16.6652L30.4471 16.8176L31.4596 17.6852ZM31.5902 17.5328L32.6026 18.4004C32.6196 18.3805 32.601 18.4056 32.5504 18.4471C32.5238 18.4688 32.4717 18.5089 32.3961 18.5507C32.3241 18.5904 32.1923 18.6531 32.012 18.6835L31.7906 17.3687L31.5691 16.0538C31.1967 16.1166 30.947 16.3134 30.8607 16.3841C30.7433 16.4802 30.6477 16.5835 30.5777 16.6652L31.5902 17.5328ZM31.7906 17.3687L32.012 18.6835L32.0818 18.6717L31.8604 17.3569L31.6389 16.0421L31.5691 16.0538L31.7906 17.3687ZM31.8604 17.3569L31.0887 18.4442L31.1697 18.5017L31.9414 17.4144L32.7131 16.3271L32.6321 16.2696L31.8604 17.3569ZM31.9414 17.4144L33.0219 18.1957L33.0805 18.1146L32 17.3334L30.9195 16.5521L30.8609 16.6331L31.9414 17.4144Z" fill="white"/>
</svg>
