<svg width="21" height="21" viewBox="0 0 21 21" fill="none" xmlns="http://www.w3.org/2000/svg">
<g clip-path="url(#clip0_2755_8209)">
<g filter="url(#filter0_dn_2755_8209)">
<path d="M16.0371 19.6881C15.2365 19.6881 14.1118 19.3985 12.4277 18.4576C10.3798 17.3092 8.7958 16.2489 6.75897 14.2174C4.79514 12.2548 3.83947 10.9842 2.50195 8.5503C0.990938 5.80226 1.24852 4.36179 1.53645 3.74614C1.87934 3.01032 2.38547 2.57022 3.03967 2.13341C3.41125 1.88995 3.80447 1.68126 4.21436 1.50997C4.25537 1.49233 4.29352 1.47552 4.32756 1.46034C4.53059 1.36888 4.8382 1.23065 5.22785 1.37831C5.48789 1.47593 5.72004 1.67567 6.08344 2.03456C6.82869 2.76956 7.84711 4.40649 8.22281 5.2104C8.47506 5.75222 8.64199 6.10987 8.6424 6.51101C8.6424 6.98063 8.40615 7.3428 8.11945 7.73368C8.06572 7.8071 8.0124 7.87724 7.96072 7.94532C7.64859 8.35548 7.5801 8.47401 7.62522 8.68565C7.71668 9.11099 8.39877 10.3771 9.51973 11.4956C10.6407 12.6141 11.8703 13.2532 12.2973 13.3442C12.518 13.3914 12.639 13.32 13.0622 12.9968C13.123 12.9505 13.1853 12.9025 13.2505 12.8545C13.6877 12.5292 14.0331 12.2991 14.4916 12.2991H14.4941C14.8932 12.2991 15.2348 12.4722 15.8009 12.7577C16.5391 13.1301 18.2253 14.1354 18.9648 14.8815C19.3245 15.2441 19.5251 15.4754 19.6231 15.735C19.7708 16.1259 19.6317 16.4323 19.5411 16.6374C19.5259 16.6714 19.5091 16.7087 19.4914 16.7501C19.3188 17.1593 19.1089 17.5517 18.8643 17.9224C18.4283 18.5745 17.9866 19.0794 17.2491 19.4227C16.8704 19.6019 16.456 19.6926 16.0371 19.6881Z" fill="url(#paint0_linear_2755_8209)"/>
<path d="M16.0371 19.6881C15.2365 19.6881 14.1118 19.3985 12.4277 18.4576C10.3798 17.3092 8.7958 16.2489 6.75897 14.2174C4.79514 12.2548 3.83947 10.9842 2.50195 8.5503C0.990938 5.80226 1.24852 4.36179 1.53645 3.74614C1.87934 3.01032 2.38547 2.57022 3.03967 2.13341C3.41125 1.88995 3.80447 1.68126 4.21436 1.50997C4.25537 1.49233 4.29352 1.47552 4.32756 1.46034C4.53059 1.36888 4.8382 1.23065 5.22785 1.37831C5.48789 1.47593 5.72004 1.67567 6.08344 2.03456C6.82869 2.76956 7.84711 4.40649 8.22281 5.2104C8.47506 5.75222 8.64199 6.10987 8.6424 6.51101C8.6424 6.98063 8.40615 7.3428 8.11945 7.73368C8.06572 7.8071 8.0124 7.87724 7.96072 7.94532C7.64859 8.35548 7.5801 8.47401 7.62522 8.68565C7.71668 9.11099 8.39877 10.3771 9.51973 11.4956C10.6407 12.6141 11.8703 13.2532 12.2973 13.3442C12.518 13.3914 12.639 13.32 13.0622 12.9968C13.123 12.9505 13.1853 12.9025 13.2505 12.8545C13.6877 12.5292 14.0331 12.2991 14.4916 12.2991H14.4941C14.8932 12.2991 15.2348 12.4722 15.8009 12.7577C16.5391 13.1301 18.2253 14.1354 18.9648 14.8815C19.3245 15.2441 19.5251 15.4754 19.6231 15.735C19.7708 16.1259 19.6317 16.4323 19.5411 16.6374C19.5259 16.6714 19.5091 16.7087 19.4914 16.7501C19.3188 17.1593 19.1089 17.5517 18.8643 17.9224C18.4283 18.5745 17.9866 19.0794 17.2491 19.4227C16.8704 19.6019 16.456 19.6926 16.0371 19.6881Z" fill="url(#paint1_linear_2755_8209)" fill-opacity="0.2"/>
<path d="M16.0371 19.6881C15.2365 19.6881 14.1118 19.3985 12.4277 18.4576C10.3798 17.3092 8.7958 16.2489 6.75897 14.2174C4.79514 12.2548 3.83947 10.9842 2.50195 8.5503C0.990938 5.80226 1.24852 4.36179 1.53645 3.74614C1.87934 3.01032 2.38547 2.57022 3.03967 2.13341C3.41125 1.88995 3.80447 1.68126 4.21436 1.50997C4.25537 1.49233 4.29352 1.47552 4.32756 1.46034C4.53059 1.36888 4.8382 1.23065 5.22785 1.37831C5.48789 1.47593 5.72004 1.67567 6.08344 2.03456C6.82869 2.76956 7.84711 4.40649 8.22281 5.2104C8.47506 5.75222 8.64199 6.10987 8.6424 6.51101C8.6424 6.98063 8.40615 7.3428 8.11945 7.73368C8.06572 7.8071 8.0124 7.87724 7.96072 7.94532C7.64859 8.35548 7.5801 8.47401 7.62522 8.68565C7.71668 9.11099 8.39877 10.3771 9.51973 11.4956C10.6407 12.6141 11.8703 13.2532 12.2973 13.3442C12.518 13.3914 12.639 13.32 13.0622 12.9968C13.123 12.9505 13.1853 12.9025 13.2505 12.8545C13.6877 12.5292 14.0331 12.2991 14.4916 12.2991H14.4941C14.8932 12.2991 15.2348 12.4722 15.8009 12.7577C16.5391 13.1301 18.2253 14.1354 18.9648 14.8815C19.3245 15.2441 19.5251 15.4754 19.6231 15.735C19.7708 16.1259 19.6317 16.4323 19.5411 16.6374C19.5259 16.6714 19.5091 16.7087 19.4914 16.7501C19.3188 17.1593 19.1089 17.5517 18.8643 17.9224C18.4283 18.5745 17.9866 19.0794 17.2491 19.4227C16.8704 19.6019 16.456 19.6926 16.0371 19.6881Z" fill="url(#paint2_linear_2755_8209)" fill-opacity="0.2"/>
</g>
</g>
<defs>
<filter id="filter0_dn_2755_8209" x="0.524076" y="1.31348" width="19.9562" height="19.9599" filterUnits="userSpaceOnUse" color-interpolation-filters="sRGB">
<feFlood flood-opacity="0" result="BackgroundImageFix"/>
<feColorMatrix in="SourceAlpha" type="matrix" values="0 0 0 0 0 0 0 0 0 0 0 0 0 0 0 0 0 0 127 0" result="hardAlpha"/>
<feOffset dy="0.792453"/>
<feGaussianBlur stdDeviation="0.396226"/>
<feComposite in2="hardAlpha" operator="out"/>
<feColorMatrix type="matrix" values="0 0 0 0 1 0 0 0 0 0.415686 0 0 0 0 0.231373 0 0 0 0.19 0"/>
<feBlend mode="normal" in2="BackgroundImageFix" result="effect1_dropShadow_2755_8209"/>
<feBlend mode="normal" in="SourceGraphic" in2="BackgroundImageFix" result="shape"/>
<feTurbulence type="fractalNoise" baseFrequency="5.0476193428039551 5.0476193428039551" stitchTiles="stitch" numOctaves="3" result="noise" seed="1758" />
<feColorMatrix in="noise" type="luminanceToAlpha" result="alphaNoise" />
<feComponentTransfer in="alphaNoise" result="coloredNoise1">
<feFuncA type="discrete" tableValues="1 1 1 1 1 1 1 1 1 1 1 1 1 1 1 1 1 1 1 1 1 1 1 1 1 1 1 1 1 1 1 1 1 1 1 1 1 1 1 1 1 1 1 1 1 1 1 1 1 1 1 0 0 0 0 0 0 0 0 0 0 0 0 0 0 0 0 0 0 0 0 0 0 0 0 0 0 0 0 0 0 0 0 0 0 0 0 0 0 0 0 0 0 0 0 0 0 0 0 0 "/>
</feComponentTransfer>
<feComposite operator="in" in2="shape" in="coloredNoise1" result="noise1Clipped" />
<feFlood flood-color="rgba(255, 106, 59, 0.16)" result="color1Flood" />
<feComposite operator="in" in2="noise1Clipped" in="color1Flood" result="color1" />
<feMerge result="effect2_noise_2755_8209">
<feMergeNode in="shape" />
<feMergeNode in="color1" />
</feMerge>
<feBlend mode="normal" in="effect2_noise_2755_8209" in2="effect1_dropShadow_2755_8209" result="effect2_noise_2755_8209"/>
</filter>
<linearGradient id="paint0_linear_2755_8209" x1="10.5022" y1="1.31348" x2="10.5022" y2="19.6883" gradientUnits="userSpaceOnUse">
<stop stop-color="#FF6A3B"/>
<stop offset="1" stop-color="#FFEDE6"/>
</linearGradient>
<linearGradient id="paint1_linear_2755_8209" x1="15.4528" y1="4.557" x2="5.94339" y2="22.7834" gradientUnits="userSpaceOnUse">
<stop stop-color="white" stop-opacity="0"/>
<stop offset="1" stop-color="white"/>
</linearGradient>
<linearGradient id="paint2_linear_2755_8209" x1="10.5022" y1="1.31348" x2="10.5022" y2="19.6883" gradientUnits="userSpaceOnUse">
<stop stop-color="#FF6A3B" stop-opacity="0"/>
<stop offset="1" stop-color="#FF6A3B"/>
</linearGradient>
<clipPath id="clip0_2755_8209">
<rect width="21" height="21" fill="white"/>
</clipPath>
</defs>
</svg>
