<svg width="402" height="481" viewBox="0 0 402 481" fill="none" xmlns="http://www.w3.org/2000/svg">
<path opacity="0.4" d="M200.452 480.095L166.452 407.595L-49.0479 -35.4049L-104.102 130.666L200.452 480.095Z" fill="url(#paint0_linear_2769_3813)"/>
<path opacity="0.5" d="M452.548 194.29L247 436.514L385.032 -55.5069L452.548 194.29Z" fill="url(#paint1_linear_2769_3813)"/>
<path opacity="0.3" d="M27.0002 -25L-45.0859 -63L139 320L27.0002 -25Z" fill="url(#paint2_linear_2769_3813)"/>
<path opacity="0.6" d="M327.65 -19.3464L359.043 -14.9326L231 428.016L327.65 -19.3464Z" fill="url(#paint3_linear_2769_3813)"/>
<path opacity="0.7" d="M291.999 119L322.391 -32.0432L306.362 -54.5691L291.999 119Z" fill="#FFBD99"/>
<path opacity="0.4" d="M74.9676 362.001L-45.0087 270.597L-40.0597 225L74.9676 362.001Z" fill="#FF5900" fill-opacity="0.6"/>
<defs>
<linearGradient id="paint0_linear_2769_3813" x1="76.1084" y1="-32.2066" x2="59.1163" y2="496.853" gradientUnits="userSpaceOnUse">
<stop stop-color="#FF6A3B"/>
<stop offset="1" stop-color="#FFBD99"/>
</linearGradient>
<linearGradient id="paint1_linear_2769_3813" x1="305.906" y1="3.38895" x2="256.674" y2="353.55" gradientUnits="userSpaceOnUse">
<stop stop-color="#FFBD99"/>
<stop offset="1" stop-color="#FF6A3B"/>
</linearGradient>
<linearGradient id="paint2_linear_2769_3813" x1="121.563" y1="9.97613" x2="108.819" y2="406.771" gradientUnits="userSpaceOnUse">
<stop stop-color="#FF5D06" stop-opacity="0.6"/>
<stop offset="1" stop-color="#FF9C66" stop-opacity="0.1"/>
</linearGradient>
<linearGradient id="paint3_linear_2769_3813" x1="331.693" y1="-18.7779" x2="284.613" y2="316.081" gradientUnits="userSpaceOnUse">
<stop stop-color="#FF5D06" stop-opacity="0.6"/>
<stop offset="1" stop-color="#FF9C66" stop-opacity="0.1"/>
</linearGradient>
</defs>
</svg>
