<svg width="54" height="54" viewBox="0 0 54 54" fill="none" xmlns="http://www.w3.org/2000/svg">
<rect width="53.4146" height="53.4146" rx="26.7073" fill="#FF5900"/>
<path d="M18.7397 25.3488C18.1032 24.8326 17.1689 24.9302 16.6527 25.5667C16.1366 26.2031 16.2342 27.1375 16.8706 27.6536L17.8052 26.5012L18.7397 25.3488ZM17.8828 26.5642L19.2164 25.9136L19.0724 25.6186L18.8174 25.4117L17.8828 26.5642ZM18.0641 26.9357L16.7306 27.5863L18.0641 26.9357ZM18.794 27.709L17.9175 28.9061L18.794 27.709ZM19.142 27.9933L20.1412 26.8964L19.142 27.9933ZM19.4722 28.2941L18.4731 29.3909L19.4722 28.2941ZM19.7452 28.648L18.4342 29.3428L19.7452 28.648ZM19.8531 28.8516L21.1641 28.1568L19.8531 28.8516ZM19.9609 29.0551L21.272 28.3604L19.9609 29.0551ZM20.2903 29.3567L19.6899 30.7135L20.2903 29.3567ZM20.5119 29.4547L21.1123 28.0979L20.5119 29.4547ZM20.7334 29.5528L21.3338 28.1959L20.7334 29.5528ZM21.1242 29.7974L20.1528 30.9189L21.1242 29.7974ZM21.4627 30.0905L22.434 28.9689L21.4627 30.0905ZM21.7199 30.459L20.3408 31.0062L21.7199 30.459ZM21.808 30.6809L23.1872 30.1338L21.808 30.6809ZM21.896 30.9029L23.2752 30.3557L21.896 30.9029ZM22.1766 31.2497L22.9843 30.0051L22.1766 31.2497ZM22.5617 31.4996L21.754 32.7443L22.5617 31.4996ZM22.8856 31.8063L24.088 30.937L22.8856 31.8063ZM23.017 31.988L24.2194 31.1187L23.017 31.988ZM23.1484 32.1697L21.9459 33.039L23.1484 32.1697ZM23.4033 32.5404L24.645 31.7282L23.4033 32.5404ZM23.6505 32.9183L24.8922 32.1061L23.6505 32.9183ZM23.9795 33.2202L23.2646 34.5204L23.9795 33.2202ZM24.3904 33.4461L25.1053 32.146L24.3904 33.4461ZM24.702 33.6394L25.5973 32.4562L24.702 33.6394ZM24.8082 33.7197L23.9129 34.9029L24.8082 33.7197ZM24.9143 33.8L25.8096 32.6168L24.9143 33.8ZM25.1306 33.6854L26.4224 34.4153L25.1306 33.6854ZM25.2408 33.4904L26.5326 34.2203L25.2408 33.4904ZM25.351 33.2954L24.0592 32.5655L25.351 33.2954ZM25.6437 32.9578L26.5573 34.1269L25.6437 32.9578ZM25.8262 32.8151L24.9126 31.646L25.8262 32.8151ZM26.0088 32.6725L25.0952 31.5034L26.0088 32.6725ZM26.2894 32.3261L24.9526 31.6823L26.2894 32.3261ZM26.4856 31.9187L27.8224 32.5625L26.4856 31.9187ZM26.7373 31.5513L25.6554 30.536L26.7373 31.5513ZM26.8908 31.3877L25.8089 30.3724L26.8908 31.3877ZM27.0444 31.2241L28.1263 32.2394L27.0444 31.2241ZM27.3579 30.9015L28.4037 31.9541L27.3579 30.9015ZM27.6779 30.5836L26.6321 29.5311L27.6779 30.5836ZM27.952 30.2325L29.2277 30.9902L27.952 30.2325ZM28.1802 29.8482L29.4559 30.6059L28.1802 29.8482ZM28.364 29.4318L29.781 29.8716L28.364 29.4318ZM28.4336 29.2075L27.0166 28.7676L28.4336 29.2075ZM28.5032 28.9832L27.0862 28.5433L28.5032 28.9832ZM28.7913 28.6422L29.4904 29.9509L28.7913 28.6422ZM29.0097 28.5255L28.3106 27.2168L29.0097 28.5255ZM29.5295 28.0774L30.9136 28.6121L29.5295 28.0774ZM29.6125 27.8627L28.2284 27.328L29.6125 27.8627ZM29.6954 27.648L31.0795 28.1828L29.6954 27.648ZM29.8415 27.2044L28.4111 26.8101L29.8415 27.2044ZM29.9677 26.7463L28.5373 26.3521L29.9677 26.7463ZM30.1964 26.3624L31.2101 27.4458L30.1964 26.3624ZM30.362 26.2075L29.3482 25.1241L30.362 26.2075ZM30.5275 26.0525L31.5413 27.136L30.5275 26.0525ZM30.7965 25.6978L29.4788 25.0158L30.7965 25.6978ZM30.9 25.4979L32.2177 26.1799L30.9 25.4979ZM31.0034 25.298L32.3211 25.98V25.98L31.0034 25.298ZM31.6295 24.6522L30.6664 23.5235L31.6295 24.6522ZM31.8878 24.2896L33.2688 24.8321L31.8878 24.2896ZM32.0558 23.8618L30.6748 23.3194L32.0558 23.8618ZM32.2906 23.4823L33.3876 24.4814L32.2906 23.4823ZM32.5923 23.1511L31.4953 22.1521L32.5923 23.1511ZM32.8812 22.8107L31.717 21.8908L32.8812 22.8107ZM33.1574 22.4612L34.3216 23.3811L33.1574 22.4612ZM33.4956 22.1564L34.3041 23.4005L33.4956 22.1564ZM33.8956 21.8964L33.0871 20.6523L33.8956 21.8964ZM34.2303 21.5891L33.0487 20.6917L34.2303 21.5891ZM34.3649 21.4118L33.1833 20.5144L34.3649 21.4118ZM34.4996 21.2345L35.6812 22.1318L34.4996 21.2345ZM34.6552 20.7977L33.1762 20.6783L34.6552 20.7977ZM34.6971 20.2787L36.176 20.3981L34.6971 20.2787ZM35.0087 19.6801L33.882 18.7146L35.0087 19.6801ZM35.154 19.5105L36.2806 20.476L35.154 19.5105ZM35.377 19.3278L35.1305 17.8647L35.377 19.3278ZM35.4547 19.3147L36.1863 18.024L35.7279 17.7641L35.2082 17.8516L35.4547 19.3147ZM35.5515 19.3696L34.8198 20.6604L35.9754 21.3155L36.7538 20.239L35.5515 19.3696ZM36.8124 20.158C37.2926 19.4939 37.1435 18.5664 36.4794 18.0862C35.8154 17.6061 34.8879 17.7551 34.4077 18.4192L35.6101 19.2886L36.8124 20.158ZM17.8052 26.5012L16.8706 27.6536L16.9483 27.7166L17.8828 26.5642L18.8174 25.4117L18.7397 25.3488L17.8052 26.5012ZM17.8828 26.5642L16.5493 27.2147L16.7306 27.5863L18.0641 26.9357L19.3976 26.2852L19.2164 25.9136L17.8828 26.5642ZM18.0641 26.9357L16.7306 27.5863C16.8834 27.8996 17.1342 28.3327 17.5517 28.6383L18.4282 27.4412L19.3047 26.244C19.3582 26.2831 19.3946 26.3184 19.4158 26.3408C19.4372 26.3635 19.448 26.3783 19.4496 26.3805C19.4514 26.383 19.447 26.3771 19.4372 26.3603C19.4275 26.3437 19.4142 26.3191 19.3976 26.2852L18.0641 26.9357ZM18.4282 27.4412L17.5517 28.6383L17.7346 28.7722L18.6111 27.5751L19.4876 26.3779L19.3047 26.244L18.4282 27.4412ZM18.6111 27.5751L17.7346 28.7722L17.9175 28.9061L18.794 27.709L19.6705 26.5118L19.4876 26.3779L18.6111 27.5751ZM18.794 27.709L17.9175 28.9061C17.9974 28.9646 18.0724 29.026 18.1428 29.0901L19.142 27.9933L20.1412 26.8964C19.9915 26.76 19.8345 26.6318 19.6705 26.5118L18.794 27.709ZM19.142 27.9933L18.1428 29.0901L18.308 29.2405L19.3071 28.1437L20.3063 27.0468L20.1412 26.8964L19.142 27.9933ZM19.3071 28.1437L18.308 29.2405L18.4731 29.3909L19.4722 28.2941L20.4714 27.1972L20.3063 27.0468L19.3071 28.1437ZM19.4722 28.2941L18.4731 29.3909C18.464 29.3827 18.4555 29.3734 18.4481 29.3639C18.4408 29.3544 18.4363 29.3468 18.4342 29.3428L19.7452 28.648L21.0563 27.9533C20.9069 27.6714 20.7118 27.4162 20.4714 27.1972L19.4722 28.2941ZM19.7452 28.648L18.4342 29.3428L18.542 29.5463L19.8531 28.8516L21.1641 28.1568L21.0563 27.9533L19.7452 28.648ZM19.8531 28.8516L18.542 29.5463L18.6499 29.7498L19.9609 29.0551L21.272 28.3604L21.1641 28.1568L19.8531 28.8516ZM19.9609 29.0551L18.6499 29.7498C18.8861 30.1956 19.2547 30.5209 19.6899 30.7135L20.2903 29.3567L20.8908 27.9999C20.9516 28.0268 21.0257 28.0706 21.0991 28.1379C21.1733 28.2058 21.231 28.2831 21.272 28.3604L19.9609 29.0551ZM20.2903 29.3567L19.6899 30.7135L19.9114 30.8115L20.5119 29.4547L21.1123 28.0979L20.8908 27.9999L20.2903 29.3567ZM20.5119 29.4547L19.9114 30.8115L20.133 30.9096L20.7334 29.5528L21.3338 28.1959L21.1123 28.0979L20.5119 29.4547ZM20.7334 29.5528L20.133 30.9096C20.1455 30.9151 20.1523 30.9191 20.1546 30.9206C20.1569 30.922 20.1559 30.9216 20.1528 30.9189L21.1242 29.7974L22.0955 28.6758C21.8627 28.4741 21.6052 28.316 21.3338 28.1959L20.7334 29.5528ZM21.1242 29.7974L20.1528 30.9189L20.3221 31.0655L21.2934 29.9439L22.2648 28.8224L22.0955 28.6758L21.1242 29.7974ZM21.2934 29.9439L20.3221 31.0655L20.4913 31.2121L21.4627 30.0905L22.434 28.9689L22.2648 28.8224L21.2934 29.9439ZM21.4627 30.0905L20.4913 31.2121C20.4121 31.1436 20.3639 31.0646 20.3408 31.0062L21.7199 30.459L23.0991 29.9119C22.9586 29.5576 22.7388 29.2329 22.434 28.9689L21.4627 30.0905ZM21.7199 30.459L20.3408 31.0062L20.4288 31.2281L21.808 30.6809L23.1872 30.1338L23.0991 29.9119L21.7199 30.459ZM21.808 30.6809L20.4288 31.2281L20.5169 31.45L21.896 30.9029L23.2752 30.3557L23.1872 30.1338L21.808 30.6809ZM21.896 30.9029L20.5169 31.45C20.6842 31.8719 20.9715 32.2365 21.3689 32.4944L22.1766 31.2497L22.9843 30.0051C23.0473 30.046 23.1095 30.1003 23.1638 30.1674C23.2177 30.234 23.2532 30.3002 23.2752 30.3557L21.896 30.9029ZM22.1766 31.2497L21.3689 32.4944L21.5615 32.6193L22.3692 31.3747L23.1768 30.13L22.9843 30.0051L22.1766 31.2497ZM22.3692 31.3747L21.5615 32.6193L21.754 32.7443L22.5617 31.4996L23.3694 30.255L23.1768 30.13L22.3692 31.3747ZM22.5617 31.4996L21.754 32.7443C21.7447 32.7382 21.7323 32.729 21.7189 32.7162C21.7054 32.7035 21.6933 32.6895 21.6832 32.6756L22.8856 31.8063L24.088 30.937C23.8906 30.6639 23.6477 30.4356 23.3694 30.255L22.5617 31.4996ZM22.8856 31.8063L21.6832 32.6756L21.8146 32.8573L23.017 31.988L24.2194 31.1187L24.088 30.937L22.8856 31.8063ZM23.017 31.988L21.8146 32.8573L21.9459 33.039L23.1484 32.1697L24.3508 31.3004L24.2194 31.1187L23.017 31.988ZM23.1484 32.1697L21.9459 33.039C22.0199 33.1413 22.0918 33.2458 22.1616 33.3526L23.4033 32.5404L24.645 31.7282C24.5501 31.583 24.452 31.4404 24.3508 31.3004L23.1484 32.1697ZM23.4033 32.5404L22.1616 33.3526L22.2852 33.5415L23.5269 32.7293L24.7686 31.9172L24.645 31.7282L23.4033 32.5404ZM23.5269 32.7293L22.2852 33.5415L22.4088 33.7305L23.6505 32.9183L24.8922 32.1061L24.7686 31.9172L23.5269 32.7293ZM23.6505 32.9183L22.4088 33.7305C22.6294 34.0677 22.9233 34.3326 23.2646 34.5204L23.9795 33.2202L24.6944 31.92C24.7248 31.9367 24.7608 31.9611 24.7977 31.995C24.8348 32.029 24.8666 32.067 24.8922 32.1061L23.6505 32.9183ZM23.9795 33.2202L23.2646 34.5204L23.4701 34.6333L24.185 33.3332L24.8999 32.033L24.6944 31.92L23.9795 33.2202ZM24.185 33.3332L23.4701 34.6333L23.6755 34.7463L24.3904 33.4461L25.1053 32.146L24.8999 32.033L24.185 33.3332ZM24.3904 33.4461L23.6755 34.7463C23.7272 34.7747 23.7641 34.7964 23.7889 34.8118C23.8153 34.8282 23.8185 34.8315 23.8067 34.8226L24.702 33.6394L25.5973 32.4562C25.442 32.3387 25.2656 32.2341 25.1053 32.146L24.3904 33.4461ZM24.702 33.6394L23.8067 34.8226L23.9129 34.9029L24.8082 33.7197L25.7034 32.5365L25.5973 32.4562L24.702 33.6394ZM24.8082 33.7197L23.9129 34.9029L24.019 34.9832L24.9143 33.8L25.8096 32.6168L25.7034 32.5365L24.8082 33.7197ZM24.9143 33.8L24.019 34.9832C24.2011 35.121 24.4676 35.2616 24.8094 35.2983C25.1605 35.3359 25.4735 35.2512 25.7164 35.1225C26.1356 34.9002 26.3456 34.5513 26.4224 34.4153L25.1306 33.6854L23.8388 32.9554C23.8422 32.9495 23.9794 32.6846 24.3265 32.5006C24.5333 32.391 24.8104 32.3139 25.1258 32.3477C25.432 32.3805 25.6629 32.5058 25.8096 32.6168L24.9143 33.8ZM25.1306 33.6854L26.4224 34.4153L26.5326 34.2203L25.2408 33.4904L23.949 32.7605L23.8388 32.9554L25.1306 33.6854ZM25.2408 33.4904L26.5326 34.2203L26.6427 34.0253L25.351 33.2954L24.0592 32.5655L23.949 32.7605L25.2408 33.4904ZM25.351 33.2954L26.6427 34.0253C26.6309 34.0463 26.6165 34.0668 26.6003 34.0854C26.5842 34.104 26.569 34.1177 26.5573 34.1269L25.6437 32.9578L24.7301 31.7887C24.4601 31.9997 24.2319 32.2598 24.0592 32.5655L25.351 33.2954ZM25.6437 32.9578L26.5573 34.1269L26.7398 33.9842L25.8262 32.8151L24.9126 31.646L24.7301 31.7887L25.6437 32.9578ZM25.8262 32.8151L26.7398 33.9842L26.9224 33.8416L26.0088 32.6725L25.0952 31.5034L24.9126 31.646L25.8262 32.8151ZM26.0088 32.6725L26.9224 33.8416C27.219 33.6097 27.4595 33.3161 27.6262 32.9699L26.2894 32.3261L24.9526 31.6823C24.9886 31.6077 25.0419 31.545 25.0952 31.5034L26.0088 32.6725ZM26.2894 32.3261L27.6262 32.9699L27.7243 32.7662L26.3875 32.1224L25.0507 31.4786L24.9526 31.6823L26.2894 32.3261ZM26.3875 32.1224L27.7243 32.7662L27.8224 32.5625L26.4856 31.9187L25.1488 31.2749L25.0507 31.4786L26.3875 32.1224ZM26.4856 31.9187L27.8224 32.5625C27.823 32.5612 27.8228 32.5618 27.8216 32.5636C27.8211 32.5643 27.8206 32.5651 27.8201 32.5657C27.8198 32.566 27.8196 32.5662 27.8195 32.5664C27.8194 32.5665 27.8193 32.5666 27.8193 32.5666C27.8193 32.5666 27.8193 32.5667 27.8192 32.5667C27.8192 32.5667 27.8192 32.5667 27.8192 32.5667L26.7373 31.5513L25.6554 30.536C25.4488 30.7561 25.2793 31.004 25.1488 31.2749L26.4856 31.9187ZM26.7373 31.5513L27.8192 32.5667L27.9728 32.4031L26.8908 31.3877L25.8089 30.3724L25.6554 30.536L26.7373 31.5513ZM26.8908 31.3877L27.9728 32.4031L28.1263 32.2394L27.0444 31.2241L25.9625 30.2088L25.8089 30.3724L26.8908 31.3877ZM27.0444 31.2241L28.1263 32.2394C28.2168 32.143 28.3093 32.0479 28.4037 31.9541L27.3579 30.9015L26.3122 29.849C26.1933 29.9671 26.0767 30.087 25.9625 30.2088L27.0444 31.2241ZM27.3579 30.9015L28.4037 31.9541L28.5637 31.7951L27.5179 30.7426L26.4721 29.69L26.3122 29.849L27.3579 30.9015ZM27.5179 30.7426L28.5637 31.7951L28.7237 31.6361L27.6779 30.5836L26.6321 29.5311L26.4721 29.69L27.5179 30.7426ZM27.6779 30.5836L28.7237 31.6361C28.9183 31.4428 29.0872 31.2268 29.2277 30.9902L27.952 30.2325L26.6763 29.4748C26.6647 29.4943 26.6508 29.5125 26.6321 29.5311L27.6779 30.5836ZM27.952 30.2325L29.2277 30.9902L29.3418 30.798L28.0661 30.0404L26.7904 29.2827L26.6763 29.4748L27.952 30.2325ZM28.0661 30.0404L29.3418 30.798L29.4559 30.6059L28.1802 29.8482L26.9045 29.0906L26.7904 29.2827L28.0661 30.0404ZM28.1802 29.8482L29.4559 30.6059C29.5944 30.3728 29.7019 30.1266 29.781 29.8716L28.364 29.4318L26.9469 28.9919C26.9332 29.036 26.9182 29.0675 26.9045 29.0906L28.1802 29.8482ZM28.364 29.4318L29.781 29.8716L29.8506 29.6473L28.4336 29.2075L27.0166 28.7676L26.9469 28.9919L28.364 29.4318ZM28.4336 29.2075L29.8506 29.6473L29.9203 29.423L28.5032 28.9832L27.0862 28.5433L27.0166 28.7676L28.4336 29.2075ZM28.5032 28.9832L29.9203 29.423C29.8877 29.528 29.8304 29.6404 29.7435 29.7433C29.6577 29.8449 29.5652 29.9109 29.4904 29.9509L28.7913 28.6422L28.0921 27.3335C27.6231 27.5841 27.2551 27.9991 27.0862 28.5433L28.5032 28.9832ZM28.7913 28.6422L29.4904 29.9509L29.7089 29.8342L29.0097 28.5255L28.3106 27.2168L28.0921 27.3335L28.7913 28.6422ZM29.0097 28.5255L29.7089 29.8342L29.9273 29.7175L29.2282 28.4088L28.529 27.1001L28.3106 27.2168L29.0097 28.5255ZM29.2282 28.4088L29.9273 29.7175C30.3608 29.4859 30.72 29.1133 30.9136 28.6121L29.5295 28.0774L28.1455 27.5427C28.182 27.4482 28.2386 27.3533 28.3151 27.2693C28.3904 27.1865 28.468 27.1327 28.529 27.1001L29.2282 28.4088ZM29.5295 28.0774L30.9136 28.6121L30.9965 28.3974L29.6125 27.8627L28.2284 27.328L28.1455 27.5427L29.5295 28.0774ZM29.6125 27.8627L30.9965 28.3974L31.0795 28.1828L29.6954 27.648L28.3114 27.1133L28.2284 27.328L29.6125 27.8627ZM29.6954 27.648L31.0795 28.1828C31.1531 27.9922 31.2171 27.7973 31.2719 27.5986L29.8415 27.2044L28.4111 26.8101C28.3817 26.9168 28.3483 27.0177 28.3114 27.1133L29.6954 27.648ZM29.8415 27.2044L31.2719 27.5986L31.335 27.3696L29.9046 26.9753L28.4742 26.5811L28.4111 26.8101L29.8415 27.2044ZM29.9046 26.9753L31.335 27.3696L31.3981 27.1406L29.9677 26.7463L28.5373 26.3521L28.4742 26.5811L29.9046 26.9753ZM29.9677 26.7463L31.3981 27.1406C31.3861 27.1843 31.3652 27.238 31.3312 27.2951C31.2969 27.3527 31.2552 27.4036 31.2101 27.4458L30.1964 26.3624L29.1826 25.279C28.8628 25.5783 28.6484 25.9488 28.5373 26.3521L29.9677 26.7463ZM30.1964 26.3624L31.2101 27.4458L31.3757 27.2909L30.362 26.2075L29.3482 25.1241L29.1826 25.279L30.1964 26.3624ZM30.362 26.2075L31.3757 27.2909L31.5413 27.136L30.5275 26.0525L29.5138 24.9691L29.3482 25.1241L30.362 26.2075ZM30.5275 26.0525L31.5413 27.136C31.7742 26.9181 31.967 26.6643 32.1143 26.3797L30.7965 25.6978L29.4788 25.0158C29.4828 25.008 29.4884 24.999 29.4953 24.9899C29.5022 24.9809 29.5087 24.9739 29.5138 24.9691L30.5275 26.0525ZM30.7965 25.6978L32.1143 26.3797L32.2177 26.1799L30.9 25.4979L29.5822 24.8159L29.4788 25.0158L30.7965 25.6978ZM30.9 25.4979L32.2177 26.1799L32.3211 25.98L31.0034 25.298L29.6857 24.6161L29.5822 24.8159L30.9 25.4979ZM31.0034 25.298L32.3211 25.98C32.3117 25.9983 32.2996 26.0173 32.285 26.0355C32.2706 26.0537 32.2563 26.0679 32.2442 26.0782L31.2811 24.9495L30.3179 23.8209C30.0585 24.0423 29.8444 24.3093 29.6857 24.6161L31.0034 25.298ZM31.2811 24.9495L32.2442 26.0782L32.4184 25.9295L31.4553 24.8008L30.4922 23.6722L30.3179 23.8209L31.2811 24.9495ZM31.4553 24.8008L32.4184 25.9295L32.5926 25.7808L31.6295 24.6522L30.6664 23.5235L30.4922 23.6722L31.4553 24.8008ZM31.6295 24.6522L32.5926 25.7808C32.8947 25.523 33.124 25.2006 33.2688 24.8321L31.8878 24.2896L30.5067 23.7471C30.5216 23.7094 30.5432 23.6678 30.5727 23.6264C30.6022 23.585 30.6347 23.5506 30.6664 23.5235L31.6295 24.6522ZM31.8878 24.2896L33.2688 24.8321L33.3528 24.6182L31.9718 24.0757L30.5907 23.5333L30.5067 23.7471L31.8878 24.2896ZM31.9718 24.0757L33.3528 24.6182L33.4368 24.4043L32.0558 23.8618L30.6748 23.3194L30.5907 23.5333L31.9718 24.0757ZM32.0558 23.8618L33.4368 24.4043C33.4332 24.4133 33.4273 24.4261 33.4182 24.4407C33.4091 24.4555 33.3986 24.4693 33.3876 24.4814L32.2906 23.4823L31.1936 22.4833C30.9682 22.7308 30.7951 23.013 30.6748 23.3194L32.0558 23.8618ZM32.2906 23.4823L33.3876 24.4814L33.5384 24.3158L32.4414 23.3167L31.3445 22.3177L31.1936 22.4833L32.2906 23.4823ZM32.4414 23.3167L33.5384 24.3158L33.6892 24.1502L32.5923 23.1511L31.4953 22.1521L31.3445 22.3177L32.4414 23.3167ZM32.5923 23.1511L33.6892 24.1502C33.8129 24.0143 33.9317 23.8745 34.0453 23.7307L32.8812 22.8107L31.717 21.8908C31.6465 21.98 31.5726 22.0671 31.4953 22.1521L32.5923 23.1511ZM32.8812 22.8107L34.0453 23.7307L34.1834 23.5559L33.0193 22.636L31.8552 21.716L31.717 21.8908L32.8812 22.8107ZM33.0193 22.636L34.1834 23.5559L34.3216 23.3811L33.1574 22.4612L31.9933 21.5413L31.8552 21.716L33.0193 22.636ZM33.1574 22.4612L34.3216 23.3811C34.3148 23.3897 34.3086 23.3959 34.3044 23.3997C34.3003 23.4034 34.2996 23.4034 34.3041 23.4005L33.4956 22.1564L32.687 20.9123C32.4279 21.0807 32.1923 21.2894 31.9933 21.5413L33.1574 22.4612ZM33.4956 22.1564L34.3041 23.4005L34.5041 23.2705L33.6956 22.0264L32.887 20.7823L32.687 20.9123L33.4956 22.1564ZM33.6956 22.0264L34.5041 23.2705L34.7042 23.1405L33.8956 21.8964L33.0871 20.6523L32.887 20.7823L33.6956 22.0264ZM33.8956 21.8964L34.7042 23.1405C34.9706 22.9673 35.2115 22.7503 35.4119 22.4864L34.2303 21.5891L33.0487 20.6917C33.0583 20.6791 33.0678 20.669 33.0758 20.6617C33.0836 20.6544 33.0881 20.6516 33.0871 20.6523L33.8956 21.8964ZM34.2303 21.5891L35.4119 22.4864L35.5466 22.3091L34.3649 21.4118L33.1833 20.5144L33.0487 20.6917L34.2303 21.5891ZM34.3649 21.4118L35.5466 22.3091L35.6812 22.1318L34.4996 21.2345L33.3179 20.3372L33.1833 20.5144L34.3649 21.4118ZM34.4996 21.2345L35.6812 22.1318C35.9697 21.752 36.1013 21.3237 36.1341 20.9171L34.6552 20.7977L33.1762 20.6783C33.1811 20.6177 33.209 20.4806 33.3179 20.3372L34.4996 21.2345ZM34.6552 20.7977L36.1341 20.9171L36.155 20.6576L34.6761 20.5382L33.1972 20.4188L33.1762 20.6783L34.6552 20.7977ZM34.6761 20.5382L36.155 20.6576L36.176 20.3981L34.6971 20.2787L33.2181 20.1593L33.1972 20.4188L34.6761 20.5382ZM34.6971 20.2787L36.176 20.3981C36.1691 20.4838 36.1292 20.6526 35.99 20.8151L34.8633 19.8496L33.7367 18.8841C33.4037 19.2727 33.253 19.7277 33.2181 20.1593L34.6971 20.2787ZM34.8633 19.8496L35.99 20.8151L36.1353 20.6456L35.0087 19.6801L33.882 18.7146L33.7367 18.8841L34.8633 19.8496ZM35.0087 19.6801L36.1353 20.6456L36.2806 20.476L35.154 19.5105L34.0273 18.545L33.882 18.7146L35.0087 19.6801ZM35.154 19.5105L36.2806 20.476C36.2996 20.4539 36.2788 20.4818 36.2225 20.5279C36.193 20.5521 36.135 20.5967 36.0508 20.6432C35.9707 20.6874 35.8241 20.7572 35.6234 20.791L35.377 19.3278L35.1305 17.8647C34.7161 17.9345 34.4383 18.1535 34.3422 18.2322C34.2116 18.3392 34.1052 18.4541 34.0273 18.545L35.154 19.5105ZM35.377 19.3278L35.6234 20.791L35.7011 20.7779L35.4547 19.3147L35.2082 17.8516L35.1305 17.8647L35.377 19.3278ZM35.4547 19.3147L34.723 20.6055L34.8198 20.6604L35.5515 19.3696L36.2831 18.0788L36.1863 18.024L35.4547 19.3147ZM35.5515 19.3696L36.7538 20.239L36.8124 20.158L35.6101 19.2886L34.4077 18.4192L34.3491 18.5002L35.5515 19.3696Z" fill="white"/>
</svg>
