<svg width="38" height="38" viewBox="0 0 38 38" fill="none" xmlns="http://www.w3.org/2000/svg">
<path d="M14.4925 8.56299C16.4985 4.96566 17.5008 3.16699 19.0002 3.16699C20.4996 3.16699 21.5019 4.96566 23.508 8.56299L24.0273 9.49399C24.5973 10.5168 24.8823 11.0282 25.3256 11.3655C25.769 11.7027 26.3231 11.8278 27.4315 12.078L28.4385 12.306C32.3335 13.1879 34.2794 13.6281 34.7433 15.118C35.2056 16.6063 33.8788 18.1596 31.2235 21.2645L30.5364 22.0672C29.7827 22.9492 29.4043 23.3909 29.2349 23.9356C29.0655 24.4818 29.1225 25.0708 29.2365 26.2472L29.341 27.3192C29.7415 31.4627 29.9426 33.5337 28.7298 34.4537C27.517 35.3736 25.693 34.5344 22.0481 32.8561L21.1029 32.4222C20.0674 31.9441 19.5496 31.7066 19.0002 31.7066C18.4508 31.7066 17.933 31.9441 16.8975 32.4222L15.9539 32.8561C12.3075 34.5344 10.4835 35.3736 9.27221 34.4552C8.05779 33.5337 8.25888 31.4627 8.65946 27.3192L8.76396 26.2488C8.87796 25.0708 8.93496 24.4818 8.76396 23.9372C8.59613 23.3909 8.21771 22.9492 7.46404 22.0688L6.77688 21.2645C4.12163 18.1612 2.79479 16.6079 3.25713 15.118C3.71946 13.6281 5.66854 13.1863 9.56354 12.306L10.5705 12.078C11.6773 11.8278 12.2299 11.7027 12.6748 11.3655C13.1197 11.0282 13.4031 10.5168 13.9731 9.49399L14.4925 8.56299Z" fill="#F0F0F0"/>
</svg>
