<svg width="24" height="24" viewBox="0 0 24 24" fill="none" xmlns="http://www.w3.org/2000/svg">
<g clip-path="url(#clip0_2564_267)">
<path d="M9.255 2.86046C10.0419 2.25473 11.007 1.92627 12 1.92627C12.993 1.92627 13.9581 2.25473 14.745 2.86046L19.995 6.89996C20.5412 7.32041 20.9835 7.8607 21.2877 8.47916C21.592 9.09761 21.7502 9.7777 21.75 10.467V17.25C21.75 18.4434 21.2759 19.588 20.432 20.4319C19.5881 21.2759 18.4435 21.75 17.25 21.75H6.75C5.55653 21.75 4.41193 21.2759 3.56802 20.4319C2.72411 19.588 2.25 18.4434 2.25 17.25V10.467C2.24982 9.7777 2.40797 9.09761 2.71226 8.47916C3.01654 7.8607 3.45883 7.32041 4.005 6.89996L9.255 2.86046Z" fill="#FF5900"/>
</g>
<defs>
<clipPath id="clip0_2564_267">
<rect width="24" height="24" rx="4" fill="white"/>
</clipPath>
</defs>
</svg>
