<svg width="24" height="24" viewBox="0 0 24 24" fill="none" xmlns="http://www.w3.org/2000/svg">
<g clip-path="url(#clip0_2564_272)">
<path d="M12.5 21C18.8514 21 24 16.7468 24 11.5C24 6.25315 18.8514 2 12.5 2C6.14855 2 1 6.25315 1 11.5C1 13.02 1.4324 14.4564 2.19945 15.7303C2.40415 16.0685 2.472 16.4552 2.35355 16.8209L1.6693 18.9356C1.60153 19.1449 1.60159 19.3652 1.66948 19.5745C1.73736 19.7837 1.87069 19.9746 2.05606 20.1278C2.24144 20.281 2.47234 20.3913 2.72561 20.4475C2.97887 20.5037 3.24557 20.5039 3.49895 20.448L6.05885 19.8818C6.50319 19.7891 6.97326 19.8341 7.3802 20.0082C8.97059 20.6623 10.7234 21.0019 12.5 21Z" fill="#FFBD99"/>
</g>
<defs>
<clipPath id="clip0_2564_272">
<rect width="24" height="24" rx="4" fill="white"/>
</clipPath>
</defs>
</svg>
